<?xml version="1.0" encoding="utf-8"?>
<!-- Generator: Adobe Illustrator 24.3.0, SVG Export Plug-In . SVG Version: 6.00 Build 0)  -->
<svg version="1.1" id="Layer_1" xmlns="http://www.w3.org/2000/svg" xmlns:xlink="http://www.w3.org/1999/xlink" x="0px" y="0px"
	 viewBox="0 0 720 520.3" style="enable-background:new 0 0 720 520.3;" xml:space="preserve">
<style type="text/css">
	.st0{fill:none;stroke:#FFFFFF;stroke-width:7.3154;stroke-miterlimit:10;}
	.st1{fill:#FFFFFF;}
	.st2{fill:none;stroke:#FFFFFF;stroke-width:3.6577;stroke-miterlimit:10;}
	.st3{fill:none;stroke:#FFFFFF;stroke-width:12.1097;stroke-miterlimit:10;}
	.st4{fill:none;stroke:#FFFFFF;stroke-width:6.0548;stroke-miterlimit:10;}
</style>
<g>
	<g>
		<g>
			<circle class="st0" cx="577.1" cy="376.8" r="124.3"/>
			<g>
				<path class="st1" d="M591.7,251.4v-18h-30.4v18.3c5.3-0.7,10.6-1.1,16.1-1.1C582.3,250.5,587,250.9,591.7,251.4z"/>
				<path class="st1" d="M561.4,502v18.3h30.4v-18c-4.7,0.5-9.5,0.9-14.3,0.9C572,503.1,566.6,502.6,561.4,502z"/>
				<path class="st1" d="M452.2,361.6h-19V392h19c-0.6-5-1-10-1-15.2C451.2,371.7,451.6,366.6,452.2,361.6z"/>
				<path class="st1" d="M702.7,392H720v-30.4h-17.3c0.6,5,1,10,1,15.2C703.7,382,703.3,387,702.7,392z"/>
				<path class="st1" d="M499.1,277.9l-13.2-13.2l-21.5,21.5l13.4,13.4C484,291.5,491.1,284.2,499.1,277.9z"/>
				<path class="st1" d="M654.8,476.5l12.5,12.5l21.5-21.5l-12.4-12.4C670.1,463.1,662.8,470.3,654.8,476.5z"/>
				<path class="st1" d="M676.4,298.5l12.4-12.4l-21.5-21.5l-12.5,12.5C662.8,283.4,670.1,290.5,676.4,298.5z"/>
				<path class="st1" d="M477.8,454.2l-13.4,13.4l21.5,21.5l13.2-13.2C491.1,469.4,484,462.2,477.8,454.2z"/>
			</g>
		</g>
		<g>
			<circle class="st2" cx="577" cy="376.8" r="89.3"/>
			<g>
				<path class="st1" d="M587.5,286.8v-12.9h-21.8V287c3.8-0.5,7.6-0.8,11.5-0.8C580.7,286.1,584.1,286.4,587.5,286.8z"/>
				<path class="st1" d="M565.7,466.7v13.1h21.8v-12.9c-3.4,0.4-6.8,0.6-10.3,0.6C573.3,467.5,569.4,467.2,565.7,466.7z"/>
				<path class="st1" d="M487.2,365.9h-13.7v21.8h13.7c-0.4-3.6-0.7-7.2-0.7-10.9C486.5,373.1,486.8,369.5,487.2,365.9z"/>
				<path class="st1" d="M667.1,387.7h12.4v-21.8h-12.4c0.4,3.6,0.7,7.2,0.7,10.9C667.9,380.5,667.6,384.1,667.1,387.7z"/>
				<path class="st1" d="M520.9,305.8l-9.5-9.5L496,311.7l9.6,9.6C510.1,315.5,515.2,310.3,520.9,305.8z"/>
				<path class="st1" d="M632.7,448.4l9,9l15.4-15.4l-8.9-8.9C643.7,438.8,638.5,443.9,632.7,448.4z"/>
				<path class="st1" d="M648.2,320.6l8.9-8.9l-15.4-15.4l-9,9C638.5,309.7,643.7,314.9,648.2,320.6z"/>
				<path class="st1" d="M505.6,432.3l-9.6,9.6l15.4,15.4l9.5-9.5C515.2,443.3,510.1,438.1,505.6,432.3z"/>
			</g>
		</g>
		<g>
			<polygon class="st1" points="582.5,362.5 570.6,362.5 562.2,370.9 562.2,382.8 570.6,391.1 582.5,391.1 590.9,382.8 590.9,370.9 
							"/>
		</g>
	</g>
	<g>
		<g>
			<circle class="st3" cx="231" cy="230.5" r="205.8"/>
			<g>
				<path class="st1" d="M335.8,49.6l11.9-27.4l-46.1-20L289.5,30c8.4,2.5,16.9,5.3,25.1,8.9C322,42.1,329,45.7,335.8,49.6z"/>
				<path class="st1" d="M124.6,410.1l-12.1,27.8l46.1,20l11.9-27.4c-7.5-2.3-14.9-4.9-22.3-8.1
					C139.9,418.8,132.1,414.6,124.6,410.1z"/>
				<path class="st1" d="M51.2,125.1l-28.9-12.5l-20,46.1l28.9,12.5c2.4-8,5.1-15.9,8.5-23.7C43,139.6,47,132.2,51.2,125.1z"/>
				<path class="st1" d="M411.7,336.3l26.2,11.4l20-46.1l-26.2-11.4c-2.4,8-5.1,15.9-8.5,23.7C419.8,321.7,415.9,329.1,411.7,336.3z
					"/>
				<path class="st1" d="M177.6,28.8L166.3,0l-46.7,18.5L131,47.5C145.8,39.5,161.4,33.2,177.6,28.8z"/>
				<path class="st1" d="M283.2,433l10.7,27.2l46.7-18.5L330,414.8C315.2,422.7,299.5,428.8,283.2,433z"/>
				<path class="st1" d="M433.3,176.9l26.9-10.6l-18.5-46.7l-27.2,10.7C422.6,145,428.9,160.6,433.3,176.9z"/>
				<path class="st1" d="M29.1,282.4L0,293.9l18.5,46.7l28.8-11.4C39.3,314.5,33.3,298.7,29.1,282.4z"/>
			</g>
		</g>
		<g>
			<circle class="st4" cx="230.7" cy="230.4" r="147.8"/>
			<g>
				<path class="st1" d="M306,100.5l8.5-19.7l-33.1-14.4l-8.7,19.9c6.1,1.8,12.1,3.8,18,6.4C296.1,95.1,301.1,97.7,306,100.5z"/>
				<path class="st1" d="M154.3,359.4l-8.7,19.9l33.1,14.4l8.5-19.7c-5.4-1.6-10.7-3.5-16-5.8C165.4,365.6,159.8,362.6,154.3,359.4z
					"/>
				<path class="st1" d="M101.6,154.7l-20.8-9l-14.4,33.1l20.8,9c1.7-5.7,3.7-11.4,6.1-17C95.8,165.1,98.6,159.8,101.6,154.7z"/>
				<path class="st1" d="M360.5,306.3l18.8,8.2l14.4-33.1l-18.8-8.2c-1.7,5.7-3.7,11.4-6.1,17C366.3,295.9,363.5,301.2,360.5,306.3z
					"/>
				<path class="st1" d="M192.4,85.6l-8.2-20.7l-33.6,13.2l8.2,20.9C169.5,93.2,180.8,88.7,192.4,85.6z"/>
				<path class="st1" d="M268.2,375.8l7.7,19.5l33.6-13.2l-7.6-19.3C291.2,368.4,279.9,372.8,268.2,375.8z"/>
				<path class="st1" d="M376,191.9l19.3-7.6L382,150.7l-19.5,7.7C368.3,169,372.9,180.2,376,191.9z"/>
				<path class="st1" d="M85.8,267.7l-20.9,8.2l13.2,33.6l20.7-8.2C93.1,290.7,88.8,279.4,85.8,267.7z"/>
			</g>
		</g>
		<g>
			<polygon class="st1" points="248.5,212.2 230.5,204.4 212.2,211.6 204.4,229.7 211.6,247.9 229.7,255.8 247.9,248.5 255.8,230.5 
							"/>
		</g>
	</g>
</g>
</svg>
