<svg xmlns="http://www.w3.org/2000/svg" viewBox="0 0 460.23 195.12"><defs><style>.cls-1,.cls-6{fill:#ef4423;}.cls-1{opacity:0.42;}.cls-2,.cls-3,.cls-4{fill:none;stroke:#fff;stroke-miterlimit:10;}.cls-2{stroke-width:3px;}.cls-3{stroke-width:2px;}.cls-5{fill:#b81e6f;}.cls-6{opacity:0.55;}</style></defs><g id="Layer_2" data-name="Layer 2"><path class="cls-1" d="M461,121.37,218.17,196.08a4.36,4.36,0,0,1-2.72-.05l-183.4-63.9a4.36,4.36,0,0,1,.16-8.28L275,49.14a4.29,4.29,0,0,1,2.72,0l183.4,63.9A4.36,4.36,0,0,1,461,121.37Z" transform="translate(-3.85 -2.65)"/><path class="cls-2" d="M218.17,196.08a4.36,4.36,0,0,1-2.72-.05l-183.4-63.9a4.36,4.36,0,0,1,.16-8.28L275,49.14a4.29,4.29,0,0,1,2.72,0" transform="translate(-3.85 -2.65)"/><path class="cls-3" d="M215.18,196.07a4.55,4.55,0,0,1-2.85,0L19.75,128.92a4.58,4.58,0,0,1,.16-8.7l255-78.45a4.55,4.55,0,0,1,2.85,0" transform="translate(-3.85 -2.65)"/><path class="cls-4" d="M212.23,196.06a4.85,4.85,0,0,1-3-.05L7.57,125.74a4.79,4.79,0,0,1,.16-9.11l267-82.16a4.78,4.78,0,0,1,3,.06" transform="translate(-3.85 -2.65)"/></g><g id="Layer_1" data-name="Layer 1"><path class="cls-5" d="M150.32,97.55c0-45.42,54.82-88,100.24-88S350.85,51.2,350.85,96.63c0,10.71.66,30.64-3.07,40h0a212.54,212.54,0,0,1-109,21.87,211.38,211.38,0,0,1-88.41-26.49C148.74,123.3,150.32,111.5,150.32,97.55Z" transform="translate(-3.85 -2.65)"/><path class="cls-6" d="M156.22,91.65c0-45.43,54.82-88,100.25-88S356.76,45.3,356.76,90.72c0,10.72.65,30.65-3.08,40h0a212.54,212.54,0,0,1-109,21.87,211.43,211.43,0,0,1-88.41-26.49C154.64,117.4,156.22,105.6,156.22,91.65Z" transform="translate(-3.85 -2.65)"/><path class="cls-4" d="M253.85,6.33l-2.54,24.32a1.82,1.82,0,0,0,2.17,2l35.35-7.12a1.82,1.82,0,0,0,.49-3.4L256.51,4.9A1.82,1.82,0,0,0,253.85,6.33Z" transform="translate(-3.85 -2.65)"/><path class="cls-4" d="M250.74,36.16l-3.13,31a1.83,1.83,0,0,0,2.26,2l35.73-8.87a1.82,1.82,0,0,0,.58-3.27l-32.6-22.17A1.82,1.82,0,0,0,250.74,36.16Z" transform="translate(-3.85 -2.65)"/><path class="cls-4" d="M293.42,28.09l-3.59,29a1.82,1.82,0,0,0,1.92,2L323.6,57.1A1.82,1.82,0,0,0,324.75,54L296.49,27A1.82,1.82,0,0,0,293.42,28.09Z" transform="translate(-3.85 -2.65)"/><path class="cls-4" d="M291.09,10.33l2.54,13a1.81,1.81,0,0,0,1.44,1.44l29,5.67A1.83,1.83,0,0,1,325.56,32l2.07,23.46a1.82,1.82,0,0,0,1.45,1.62l20.07,4.17a1.82,1.82,0,0,1,1.45,1.78V91.85a1.82,1.82,0,0,0,2.74,1.57l4.6-2.7" transform="translate(-3.85 -2.65)"/><path class="cls-4" d="M254.13,3.65,215.87,21.18a1.82,1.82,0,0,0,.33,3.43l30.59,7.47a1.82,1.82,0,0,1,.52,3.32L211.86,57.08a1.82,1.82,0,0,0,.48,3.32l32.33,8.66a1.82,1.82,0,0,1,1,2.89l-24,30.32a1.82,1.82,0,0,1-3.2-.71L208.23,59.3" transform="translate(-3.85 -2.65)"/><path class="cls-4" d="M216.66,13.74l-5.14,8.91a1.83,1.83,0,0,1-1.22.88l-14.71,3" transform="translate(-3.85 -2.65)"/><path class="cls-4" d="M210.73,28.08l-2.35,29.38a1.82,1.82,0,0,1-2,1.66L180.2,56.61a1.83,1.83,0,0,1-1.08-3.15L207.66,26.6A1.83,1.83,0,0,1,210.73,28.08Z" transform="translate(-3.85 -2.65)"/><path class="cls-4" d="M181.85,38.67,176.46,55.4a1.84,1.84,0,0,1-1.06,1.14l-9.61,3.81" transform="translate(-3.85 -2.65)"/><path class="cls-4" d="M157.4,91.65l7.06,32.76a1.82,1.82,0,0,0,3.49.23l7.94-21.87a1.82,1.82,0,0,1,3.38-.12L196,140.18a1.82,1.82,0,0,0,3.25.16L218,107.49a1.81,1.81,0,0,0-1.29-2.7l-39.14-6.24a1.67,1.67,0,0,1-.3-.08l-17.86-6.13a1.83,1.83,0,0,1-1-2.58L173,62.31a1.83,1.83,0,0,1,3.44.8l.88,30.38a1.83,1.83,0,0,0,3.26,1.08L208.23,59.3" transform="translate(-3.85 -2.65)"/><path class="cls-4" d="M355.7,127.32,350.89,96.9a1.81,1.81,0,0,0-2.15-1.5l-27.29,5.37-.13,0-46,5.6a1.82,1.82,0,0,0-1.32,2.79l23.92,37.34a1.82,1.82,0,0,0,3.2-.24l18.54-41.67a1.83,1.83,0,0,1,3.35,0l12.42,29.24a1.83,1.83,0,0,0,3.43-.19l11.48-37.88a1.8,1.8,0,0,0-.18-1.47l-19.8-33.1a1.82,1.82,0,0,0-3.36.67l-5,34.6a1.82,1.82,0,0,1-3.25.85L291.58,62a1.82,1.82,0,0,0-3.16.49l-14.75,40.93a1.82,1.82,0,0,1-3.22.41l-23.1-34" transform="translate(-3.85 -2.65)"/><path class="cls-4" d="M222.53,105.29l46.87,1.36a1.82,1.82,0,0,1,1.52,2.74l-23.5,40.48a1.82,1.82,0,0,1-3.17,0L220.89,108A1.82,1.82,0,0,1,222.53,105.29Z" transform="translate(-3.85 -2.65)"/><path class="cls-3" d="M157.4,91.65c0-45.43,54.82-88,100.25-88S357.94,45.3,357.94,90.72c0,7.65.33,20-.83,29.83-1.41,6.77-3.44,10.22-10.49,14.1a212.08,212.08,0,0,1-100.81,18A210.77,210.77,0,0,1,166.67,131a17.85,17.85,0,0,1-10-16.16C156.8,108.1,157.4,100.29,157.4,91.65Z" transform="translate(-3.85 -2.65)"/></g></svg>