<svg id="Layer_1" data-name="Layer 1" xmlns="http://www.w3.org/2000/svg" viewBox="0 0 4581.11 1502.95"><defs><style>.cls-1{fill:#b81e6f;}.cls-2,.cls-4,.cls-5,.cls-6{fill:none;stroke-miterlimit:10;}.cls-2{stroke:#b81e6f;stroke-width:68px;opacity:0.49;}.cls-3{fill:#ef4423;opacity:0.57;}.cls-4,.cls-5,.cls-6{stroke:#fff;}.cls-4{stroke-width:25px;}.cls-5{stroke-width:15px;}.cls-6{stroke-width:5px;}</style></defs><path class="cls-1" d="M263.11,1351.89V1250.7a58.67,58.67,0,0,1,10.43-33.33L474.8,925.66a59.79,59.79,0,0,1,8.71-10L680.13,734c27-25,70.42-21,92.18,8.41l221.62,299.3a60.56,60.56,0,0,0,13.32,13.13l36.92,26.56c31.29,22.52,75.94,11.42,92.3-22.94l36.72-77.09c16.33-34.27,60.81-45.42,92.11-23.08l42.1,30c29.49,21,71.22,12.53,89.54-18.26L1501,795.1c18.65-31.35,61.44-39.49,90.85-17.3L1784.25,923a60.34,60.34,0,0,1,16,18.06l131.31,228.42c18.81,32.73,63.6,40.73,93.13,16.63l67.36-55a62.79,62.79,0,0,1,78.25-.59l3.73,3a62.74,62.74,0,0,0,80.19-2.26l188.34-167.31a59.37,59.37,0,0,0,18.7-31.84L2492,789.77a60.39,60.39,0,0,1,40.51-44.35l382.24-125.37c30-9.82,62.71,4.08,75.68,32.14l128.85,278.68c14.68,31.75,54,44.64,85.44,28L3476.24,815a62.88,62.88,0,0,1,64.5,3.44l247,167.22a62.31,62.31,0,0,0,12.92,6.69l176.52,66.47c30.08,11.33,64-1.9,77.79-30.31l.26-.55c22.78-47.09,92.24-45.35,112.5,2.83l5.73,13.63c16.9,40.19,70.8,50,101.5,18.48h0a62.67,62.67,0,0,1,68.46-14l42.7,17.49a61,61,0,0,1,28.4,23.64l49.66,78a60.79,60.79,0,0,0,22.41,20.8l49.12,26.55a59.57,59.57,0,0,1,31.61,52.28v84.21c0,33-27.51,59.8-61.46,59.8H324.57C290.63,1411.69,263.11,1384.92,263.11,1351.89Z" transform="translate(-26.72 -16.97)"/><path class="cls-2" d="M263.11,1351.89V1250.7a58.67,58.67,0,0,1,10.43-33.33L474.8,925.66a59.79,59.79,0,0,1,8.71-10L680.13,734c27-25,70.42-21,92.18,8.41l221.62,299.3a60.56,60.56,0,0,0,13.32,13.13l36.92,26.56c31.29,22.52,75.94,11.42,92.3-22.94l36.72-77.09c16.33-34.27,60.81-45.42,92.11-23.08l42.1,30c29.49,21,71.22,12.53,89.54-18.26L1501,795.1c18.65-31.35,61.44-39.49,90.85-17.3L1784.25,923a60.34,60.34,0,0,1,16,18.06l131.31,228.42c18.81,32.73,63.6,40.73,93.13,16.63l67.36-55a62.79,62.79,0,0,1,78.25-.59l3.73,3a62.74,62.74,0,0,0,80.19-2.26l188.34-167.31a59.37,59.37,0,0,0,18.7-31.84L2492,789.77a60.39,60.39,0,0,1,40.51-44.35l382.24-125.37c30-9.82,62.71,4.08,75.68,32.14l128.85,278.68c14.68,31.75,54,44.64,85.44,28L3476.24,815a62.88,62.88,0,0,1,64.5,3.44l247,167.22a62.31,62.31,0,0,0,12.92,6.69l176.52,66.47c30.08,11.33,64-1.9,77.79-30.31l.26-.55c22.78-47.09,92.24-45.35,112.5,2.83l5.73,13.63c16.9,40.19,70.8,50,101.5,18.48h0a62.67,62.67,0,0,1,68.46-14l42.7,17.49a61,61,0,0,1,28.4,23.64l49.66,78a60.79,60.79,0,0,0,22.41,20.8l49.12,26.55a59.57,59.57,0,0,1,31.61,52.28v84.21c0,33-27.51,59.8-61.46,59.8H324.57C290.63,1411.69,263.11,1384.92,263.11,1351.89Z" transform="translate(-26.72 -16.97)"/><path class="cls-3" d="M303.66,1357.89V1256.7a58.68,58.68,0,0,1,10.44-33.33L515.35,931.66a60.72,60.72,0,0,1,8.71-10L720.68,740c27-25,70.42-21,92.18,8.41l221.62,299.3a60.78,60.78,0,0,0,13.32,13.13l36.92,26.56c31.29,22.52,75.94,11.42,92.31-22.94l36.72-77.09c16.32-34.27,60.8-45.42,92.1-23.08l42.11,30c29.48,21,71.21,12.53,89.53-18.26L1541.58,801.1c18.65-31.35,61.43-39.49,90.85-17.3L1824.8,929a60.21,60.21,0,0,1,16,18.06l131.31,228.42c18.82,32.73,63.6,40.73,93.13,16.63l67.37-55a62.79,62.79,0,0,1,78.25-.59l3.72,3a62.75,62.75,0,0,0,80.2-2.26l188.33-167.31a59.37,59.37,0,0,0,18.7-31.84l30.79-142.27a60.38,60.38,0,0,1,40.51-44.35l382.24-125.37c30-9.82,62.7,4.08,75.68,32.14l128.84,278.68c14.68,31.75,54,44.64,85.45,28L3516.79,821a62.9,62.9,0,0,1,64.51,3.44l246.94,167.22a62.31,62.31,0,0,0,12.92,6.69l176.52,66.47c30.09,11.33,64.05-1.9,77.79-30.31l.27-.55c22.78-47.09,92.23-45.35,112.49,2.83l5.73,13.63c16.9,40.19,70.81,50,101.5,18.48h0a62.69,62.69,0,0,1,68.47-14l42.69,17.49A61.06,61.06,0,0,1,4455,1096l49.66,78a60.76,60.76,0,0,0,22.4,20.8l49.12,26.55a59.56,59.56,0,0,1,31.62,52.28v84.21c0,33-27.52,59.8-61.46,59.8H365.12C331.18,1417.69,303.66,1390.92,303.66,1357.89Z" transform="translate(-26.72 -16.97)"/><path class="cls-4" d="M4292.63,1040.58l-79.85,120c-31.71,47.67-79.14,28.22-97-39.78L3939.86,451.94c-23.16-88.06-90.93-88.06-114.09,0l-160,608.52c-18.75,71.33-69.53,88.43-100.65,33.89L3288.68,610c-24.46-42.87-62.76-42.87-87.22,0l-181.54,318.1c-32.72,57.34-86.4,35-102.74-42.71l-67.37-320.48c-18.87-89.75-84.85-101.64-112.7-20.3h0c-23.12,67.49-75.1,73.46-102.55,11.79L2448.65,138.68c-25.38-57-72.55-57-97.93,0L1879.57,1197.36c-22.53,50.62-63.09,57.28-90.08,14.78l-106-166.92c-23.7-37.32-58.52-37.32-82.22,0l-67.56,106.39c-30,47.28-75.83,33-95.8-29.95L1145.58,200.92c-24.53-77.25-84.87-77.25-109.39,0L888.14,667.19c-22,69.39-74.38,78.12-102.76,17.14L726.06,556.84c-25.32-54.39-70.83-54.39-96.14,0l-352,756.45c-35.42,76.13-6.21,194.12,48.07,194.12H4504.41c59.75,0,86.37-138.93,40-208.65l-171.8-258.18C4349.3,1005.56,4315.93,1005.56,4292.63,1040.58Z" transform="translate(-26.72 -16.97)"/><path class="cls-5" d="M4284.93,1027.51l-82.09,123.36c-32.6,49-81.36,29-99.74-40.89L3922.28,422.4c-23.81-90.52-93.48-90.52-117.28,0L3640.5,1048c-19.29,73.33-71.48,90.9-103.48,34.84L3252.88,584.91c-25.15-44.07-64.51-44.07-89.66,0l-186.62,327c-33.64,58.94-88.82,36-105.61-43.9l-69.26-329.46c-19.4-92.26-87.22-104.47-115.86-20.87h0c-23.76,69.38-77.2,75.53-105.42,12.12L2389.34,100.38c-26.09-58.62-74.58-58.62-100.67,0l-484.34,1088.3c-23.16,52-64.85,58.88-92.59,15.2l-109-171.6c-24.36-38.36-60.15-38.36-84.51,0l-69.45,109.37c-30.87,48.61-78,33.89-98.49-30.78L1049.8,164.36c-25.21-79.41-87.24-79.41-112.45,0L785.17,643.67C762.52,715,708.7,724,679.53,661.3l-61-131.06c-26-55.91-72.8-55.91-98.82,0L157.85,1307.86c-36.42,78.26-6.39,199.55,49.41,199.55H4502.63c61.42,0,88.79-142.82,41.11-214.49l-176.6-265.41C4343.18,991.51,4308.88,991.51,4284.93,1027.51Z" transform="translate(-26.72 -16.97)"/><path class="cls-6" d="M4277.72,1015.29l-84.17,126.51c-33.44,50.25-83.44,29.75-102.29-41.93l-185.42-705.1c-24.41-92.82-95.86-92.82-120.27,0l-168.69,641.48c-19.77,75.2-73.3,93.22-106.11,35.73L3219.4,561.42c-25.79-45.19-66.16-45.19-92,0L2936.08,896.75c-34.5,60.44-91.08,36.92-108.3-45l-71-337.85c-19.89-94.61-89.45-107.13-118.81-21.4h0c-24.37,71.15-79.17,77.45-108.1,12.43l-196-440.36c-26.75-60.11-76.48-60.11-103.24,0L1734,1180.57c-23.75,53.36-66.5,60.38-95,15.58l-111.74-176c-25-39.34-61.68-39.34-86.66,0l-71.22,112.16c-31.65,49.84-79.94,34.75-101-31.57L960.22,130.16c-25.85-81.43-89.46-81.43-115.31,0L688.85,621.68c-23.23,73.15-78.41,82.36-108.33,18.07L518,505.36c-26.68-57.34-74.66-57.34-101.34,0L45.56,1302.78C8.21,1383,39,1507.41,96.23,1507.41H4501c63,0,91.05-146.46,42.15-220L4362,1015.29C4337.46,978.38,4302.28,978.38,4277.72,1015.29Z" transform="translate(-26.72 -16.97)"/></svg>