<?xml version="1.0" encoding="utf-8"?>
<!-- Generator: Adobe Illustrator 24.3.0, SVG Export Plug-In . SVG Version: 6.00 Build 0)  -->
<svg version="1.1" id="Layer_1" xmlns="http://www.w3.org/2000/svg" xmlns:xlink="http://www.w3.org/1999/xlink" x="0px" y="0px"
	 viewBox="0 0 290 290" style="enable-background:new 0 0 290 290;" xml:space="preserve">
<style type="text/css">
	.st0{clip-path:url(#SVGID_2_);fill:#8C4F45;}
	.st1{clip-path:url(#SVGID_2_);}
	.st2{clip-path:url(#SVGID_4_);}
	.st3{clip-path:url(#SVGID_6_);fill:#A7A9AC;}
	.st4{clip-path:url(#SVGID_8_);fill:#3A4C47;}
	.st5{clip-path:url(#SVGID_8_);fill:#2A6D65;}
	.st6{clip-path:url(#SVGID_8_);fill:#AF6C60;}
	.st7{clip-path:url(#SVGID_8_);fill:#487ABD;}
	.st8{clip-path:url(#SVGID_8_);fill:#AA6DAA;}
	.st9{clip-path:url(#SVGID_10_);}
	.st10{clip-path:url(#SVGID_12_);fill:#48484A;}
	.st11{clip-path:url(#SVGID_14_);fill:#4B1D25;}
</style>
<g>
	<defs>
		<circle id="SVGID_1_" cx="145" cy="145" r="145.5"/>
	</defs>
	<clipPath id="SVGID_2_">
		<use xlink:href="#SVGID_1_"  style="overflow:visible;"/>
	</clipPath>
	<rect x="-210.5" y="-190.5" class="st0" width="576" height="576"/>
	<g class="st1">
		<defs>
			<rect id="SVGID_3_" x="-210.5" y="-190.5" width="576" height="576"/>
		</defs>
		<clipPath id="SVGID_4_">
			<use xlink:href="#SVGID_3_"  style="overflow:visible;"/>
		</clipPath>
		<g class="st2">
			<defs>
				<rect id="SVGID_5_" x="-806.5" y="-190.5" width="576" height="576"/>
			</defs>
			<clipPath id="SVGID_6_">
				<use xlink:href="#SVGID_5_"  style="overflow:visible;"/>
			</clipPath>
			<path class="st3" d="M-180,155.2c0-48.8-39.6-88.4-88.4-88.4c-48.8,0-88.4,39.6-88.4,88.4c0,8.3,1.2,16.3,3.3,23.9
				c3.6-0.4,7.2-0.7,10.9-0.7c40.5,0,74.6,27.3,85.1,64.4C-213.8,237.5-180,200.3-180,155.2"/>
		</g>
	</g>
	<g class="st1">
		<defs>
			<rect id="SVGID_7_" x="-210.5" y="-190.5" width="576" height="576"/>
		</defs>
		<clipPath id="SVGID_8_">
			<use xlink:href="#SVGID_7_"  style="overflow:visible;"/>
		</clipPath>
		<path class="st4" d="M-141.5,84.3c14.4-15.6,23.2-36.6,23.2-59.7c0-36.7-22.3-68.1-53.8-81.1c7.7-58.5,39.2-109.4,84.2-142.2
			c-29.2-10.8-60.7-16.7-93.6-16.7c-151.3,0-273.9,124.7-273.9,278.5c0,153.8,122.6,278.5,273.9,278.5
			c111.3,0,207.1-67.5,249.9-164.4c-11.9,2.2-24.2,3.3-36.7,3.3C-41,180.6-104.9,142.2-141.5,84.3"/>
		<path class="st5" d="M237.3-28.5c0-115.5-92.1-209.1-205.6-209.1c-44.6,0-85.9,14.5-119.6,39C17.2-159.7,92.3-57.2,92.3,63.2
			c0,40.6-8.6,79.3-24,114.1C164.4,159.7,237.3,74.2,237.3-28.5"/>
		<path class="st6" d="M416,155.2c0-48.8-39.6-88.4-88.4-88.4c-48.8,0-88.4,39.6-88.4,88.4c0,8.3,1.2,16.3,3.3,23.9
			c3.6-0.4,7.2-0.7,10.9-0.7c40.5,0,74.6,27.3,85.1,64.4C382.2,237.5,416,200.3,416,155.2"/>
		<path class="st7" d="M253.5,355.1c-7.2,0-14.2-0.9-21-2.5c10.1,9.9,23.9,16,39.2,16c30.2,0,54.8-23.9,55.9-53.8
			C311.9,339.1,284.6,355.1,253.5,355.1"/>
		<path class="st8" d="M242.6,179.1c-43.7,5.4-77.5,42.5-77.5,87.7c0,41.6,28.7,76.4,67.4,85.8c-10.4-10.2-16.8-24.3-16.8-40
			c0-30.9,25.1-56,56-56s56,25.1,56,56c0,0.7,0,1.5-0.1,2.2c9-13.8,14.2-30.3,14.2-48c0-8.3-1.2-16.3-3.3-23.9
			c-3.6,0.4-7.2,0.7-10.9,0.7C287.2,243.5,253.1,216.3,242.6,179.1"/>
	</g>
	<g class="st1">
		<defs>
			<rect id="SVGID_9_" x="-210.5" y="-190.5" width="576" height="576"/>
		</defs>
		<clipPath id="SVGID_10_">
			<use xlink:href="#SVGID_9_"  style="overflow:visible;"/>
		</clipPath>
		<g class="st9">
			<defs>
				<rect id="SVGID_11_" x="-807.3" y="-787.3" width="577.6" height="577.6"/>
			</defs>
			<clipPath id="SVGID_12_">
				<use xlink:href="#SVGID_11_"  style="overflow:visible;"/>
			</clipPath>
			<path class="st10" d="M-192.8-184.8c0,136.6-110.7,247.3-247.3,247.3c-136.6,0-247.3-110.7-247.3-247.3s110.7-247.3,247.3-247.3
				C-303.5-432.1-192.8-321.4-192.8-184.8"/>
		</g>
		<g class="st9">
			<defs>
				<rect id="SVGID_13_" x="-211.3" y="-787.3" width="577.6" height="577.6"/>
			</defs>
			<clipPath id="SVGID_14_">
				<use xlink:href="#SVGID_13_"  style="overflow:visible;"/>
			</clipPath>
			<path class="st11" d="M403.2-184.8c0,136.6-110.7,247.3-247.3,247.3C19.3,62.5-91.4-48.2-91.4-184.8S19.3-432.1,155.9-432.1
				C292.5-432.1,403.2-321.4,403.2-184.8"/>
		</g>
	</g>
</g>
</svg>
