<?xml version="1.0" encoding="utf-8"?>
<!-- Generator: Adobe Illustrator 24.3.0, SVG Export Plug-In . SVG Version: 6.00 Build 0)  -->
<svg version="1.1" id="Layer_1" xmlns="http://www.w3.org/2000/svg" xmlns:xlink="http://www.w3.org/1999/xlink" x="0px" y="0px"
	 viewBox="0 0 576 576" style="enable-background:new 0 0 576 576;" xml:space="preserve">
<style type="text/css">
	.st0{fill:#FFFFFF;}
</style>
<rect x="288" class="st0" width="288" height="576"/>
<rect width="288" height="576"/>
<g>
	<g>
		<g>
			<path d="M430.7,124.1c-0.8-1.2-1.8-2.5-2.6-1.6c-1.5,0.7-2.8,2.7-4.2,3.6c-1,0.6-2,1.3-3,1.9c-2.9,4-7.5,6.7-12.8,12.6
				c0,0.2,0-0.2,0,0c-0.2,3-1.1,7.1-1.3,12c-0.5,3.9-1.6,10.3-0.4,18.6c1.2,8.4,2.6,13.9,5.5,21.9c1.9,5.4,4.4,10.6,9.4,21.1
				c3.7,7.9,3.5,9.1,8.4,19.3c5.9,12.4,7.1,15.5,7.7,17.2c1.2,3.5,3.2,7.8,5.5,17.4c2.7,11.3,3.3,14.6,3.6,17.8
				c1.3,11.2-0.2,14.5-1.1,16c-2.4,4.1-6.6,4.5-8.5,4.9c1.4,1.2,2.6,2.6,3.5,4.2c6,0,11.9-0.1,17.9-0.7c0.2-0.2,0.4-0.5,0.7-0.7
				c-0.5,0.2-0.8,0.1-0.6-0.3c0.6-1.1,2.8-3.3,3.8-9.3c1.4-8.3,1.3-12.2-0.4-24.8c-2.3-16.9-9.2-31.1-9.2-31.1
				c-11.8-29.8-14.2-33.2-20.5-51.8c-8.9-26-8.9-34.1-7.7-40.9C426,141.9,428.4,129.1,430.7,124.1"/>
		</g>
		<g>
			<path d="M504.8,288.4c0,0,0,0.1-0.1,0.1C504.7,288.4,504.8,288.4,504.8,288.4z"/>
			<path d="M515.5,214.2c-4.4-11.3-8.9-19.2-17.3-28.7c-12.3-13.9-16.9-18.4-31.1-32.1c-33-31.7-31.1-45.6-37.6-37.8
				c-23.9,28.7-42.8,34.1-60.4,54.8c-19.7,23.1-24.5,32.7-26.8,61.6c-2.8,34.2,21.2,61.2,26.8,67.5c7,7.9,23.4,23.8,51.2,28.4
				c23.9,3.9,42.5-5,48.7-7.7c18.5-8,36-32.1,35.8-31.8c6.2-8.7,12.7-19.1,14.4-37.8C520.6,234.3,518.3,221.5,515.5,214.2z
				 M402.5,297.8c1,6,1.1,5.2,1.4,6.8c0.3,2.3-9.1-2.7-13.6-6.1c-5.6-4.2-10.1-8.1-11.7-9.7c-4.8-4.4-6.2-7.3-9.1-11.2
				c-3.7-4.9-5.5-9.1-8-15.1c-1.9-4.4-4.1-9.5-5.7-16.6c-2.1-9.4-2.1-16.8-2-21.1c0.1-7.1,0.2-15,3.7-24.5c2.4-6.6,5.6-11.6,7.1-14
				c1.4-2.2,3.5-5,7.7-10.3c6.3-8.1,10.8-12.6,13.1-14.5c4.2-3.4,2-2.2,11.4-9.7c1.5-1.2,5.8-4.7,11.2-9.4
				c5.9-5.2,8.9-7.7,11.4-10.5c5.8-6.3,9.9-9.3,9.9-9.3c2.2,4.6,8.1,16.2,10,26.4c1.3,6.8,1.3,14.9-7.4,41
				c-6.2,18.7-8.6,22.1-20.2,52c0,0-6.8,14.2-8.9,31.1C401.1,285.6,401.1,289.5,402.5,297.8z M474.1,167c6.6,6.5,12.3,12.4,13.6,14
				c1.6,1.9,3.8,5,7,9.5c3.8,5.5,6.1,9.8,8.4,15c3.9,8.8,6.1,15.3,6.6,21.2c0.3,4.5,0.8,10-0.4,16.8c-1.7,10.1-5.9,17.2-8.6,21.6
				c-11.3,18.5-22.8,26.9-35.3,32.3c-15.8,6.7-24.9,8.8-37,7.2c-1.6-0.2-6.4-0.5-9-4.9c-0.9-1.5-2.4-4.8-1.2-16
				c0.3-3.2,0.9-6.5,3.5-17.9c2.2-9.6,4.2-14,5.3-17.5c0.6-1.7,1.8-4.8,7.6-17.3c4.8-10.2,4.5-11.4,8.2-19.3
				c4.9-10.5,7.4-15.7,9.2-21.2c2.8-8.1,4.2-13.6,5.3-22c1.8-12.5-2.9-21.3-2.9-21.3"/>
		</g>
	</g>
	<g>
		<g>
			<path class="st0" d="M145.1,124.1c-0.8-1.2-1.8-2.5-2.6-1.6c-1.5,0.7-2.8,2.7-4.2,3.6c-1,0.6-2,1.3-3,1.9
				c-2.9,4-7.5,6.7-12.8,12.6c0,0.2,0-0.2,0,0c-0.2,3-1.1,7.1-1.3,12c-0.5,3.9-1.6,10.3-0.4,18.6c1.2,8.4,2.6,13.9,5.5,21.9
				c1.9,5.4,4.4,10.6,9.4,21.1c3.7,7.9,3.5,9.1,8.4,19.3c5.9,12.4,7.1,15.5,7.7,17.2c1.2,3.5,3.2,7.8,5.5,17.4
				c2.7,11.3,3.3,14.6,3.6,17.8c1.3,11.2-0.2,14.5-1.1,16c-2.4,4.1-6.6,4.5-8.5,4.9c1.4,1.2,2.6,2.6,3.5,4.2c6,0,11.9-0.1,17.9-0.7
				c0.2-0.2,0.4-0.5,0.7-0.7c-0.5,0.2-0.8,0.1-0.6-0.3c0.6-1.1,2.8-3.3,3.8-9.3c1.4-8.3,1.3-12.2-0.4-24.8
				c-2.3-16.9-9.2-31.1-9.2-31.1c-11.8-29.8-14.2-33.2-20.5-51.8c-8.9-26-8.9-34.1-7.7-40.9C140.4,141.9,142.7,129.1,145.1,124.1"/>
		</g>
		<g>
			<path class="st0" d="M219.1,288.4c0,0,0,0.1-0.1,0.1C219.1,288.4,219.1,288.4,219.1,288.4z"/>
			<path class="st0" d="M229.8,214.2c-4.4-11.3-8.9-19.2-17.3-28.7c-12.3-13.9-16.9-18.4-31.1-32.1c-33-31.7-31.1-45.6-37.6-37.8
				c-23.9,28.7-42.8,34.1-60.4,54.8c-19.7,23.1-24.5,32.7-26.8,61.6c-2.8,34.2,21.2,61.2,26.8,67.5c7,7.9,23.4,23.8,51.2,28.4
				c23.9,3.9,42.5-5,48.7-7.7c18.5-8,36-32.1,35.8-31.8c6.2-8.7,12.7-19.1,14.4-37.8C235,234.3,232.6,221.5,229.8,214.2z
				 M116.8,297.8c1,6,1.1,5.2,1.4,6.8c0.3,2.3-9.1-2.7-13.6-6.1c-5.6-4.2-10.1-8.1-11.7-9.7c-4.8-4.4-6.2-7.3-9.1-11.2
				c-3.7-4.9-5.5-9.1-8-15.1c-1.9-4.4-4.1-9.5-5.7-16.6c-2.1-9.4-2.1-16.8-2-21.1c0.1-7.1,0.2-15,3.7-24.5c2.4-6.6,5.6-11.6,7.1-14
				c1.4-2.2,3.5-5,7.7-10.3c6.3-8.1,10.8-12.6,13.1-14.5c4.2-3.4,2-2.2,11.4-9.7c1.5-1.2,5.8-4.7,11.2-9.4
				c5.9-5.2,8.9-7.7,11.4-10.5c5.8-6.3,9.9-9.3,9.9-9.3c2.2,4.6,8.1,16.2,10,26.4c1.3,6.8,1.3,14.9-7.4,41
				c-6.2,18.7-8.6,22.1-20.2,52c0,0-6.8,14.2-8.9,31.1C115.4,285.6,115.4,289.5,116.8,297.8z M188.4,167c6.6,6.5,12.3,12.4,13.6,14
				c1.6,1.9,3.8,5,7,9.5c3.8,5.5,6.1,9.8,8.4,15c3.9,8.8,6.1,15.3,6.6,21.2c0.3,4.5,0.8,10-0.4,16.8c-1.7,10.1-5.9,17.2-8.6,21.6
				c-11.3,18.5-22.8,26.9-35.3,32.3c-15.8,6.7-24.9,8.8-37,7.2c-1.6-0.2-6.4-0.5-9-4.9c-0.9-1.5-2.4-4.8-1.2-16
				c0.3-3.2,0.9-6.5,3.5-17.9c2.2-9.6,4.2-14,5.3-17.5c0.6-1.7,1.8-4.8,7.6-17.3c4.8-10.2,4.5-11.4,8.2-19.3
				c4.9-10.5,7.4-15.7,9.2-21.2c2.8-8.1,4.2-13.6,5.3-22c1.8-12.5-2.9-21.3-2.9-21.3"/>
		</g>
	</g>
	<g>
		<g>
			<path d="M430.8,379.4c-0.3-0.5-0.7-1-1.1-0.6c-0.6,0.3-1.1,1.1-1.7,1.5c-0.4,0.3-0.8,0.5-1.2,0.8c-1.2,1.6-3.1,2.7-5.2,5.1
				c0,0.1,0-0.1,0,0c-0.1,1.2-0.4,2.9-0.5,4.9c-0.2,1.6-0.7,4.2-0.2,7.5c0.5,3.4,1.1,5.6,2.2,8.9c0.8,2.2,1.8,4.3,3.8,8.6
				c1.5,3.2,1.4,3.7,3.4,7.8c2.4,5,2.9,6.3,3.1,7c0.5,1.4,1.3,3.2,2.2,7.1c1.1,4.6,1.3,5.9,1.5,7.2c0.5,4.5-0.1,5.9-0.5,6.5
				c-1,1.7-2.7,1.8-3.5,2c0.6,0.5,1.1,1.1,1.4,1.7c2.4,0,4.8,0,7.2-0.3c0.1-0.1,0.2-0.2,0.3-0.3c-0.2,0.1-0.3,0-0.2-0.1
				c0.3-0.4,1.1-1.4,1.5-3.8c0.6-3.4,0.5-5-0.1-10c-0.9-6.9-3.7-12.6-3.7-12.6c-4.8-12.1-5.8-13.4-8.3-21
				c-3.6-10.6-3.6-13.8-3.1-16.6C428.9,386.6,429.8,381.5,430.8,379.4"/>
		</g>
		<g>
			<path d="M460.8,446C460.8,446,460.8,446.1,460.8,446C460.8,446,460.8,446,460.8,446z"/>
			<path d="M465.2,415.9c-1.8-4.6-3.6-7.8-7-11.6c-5-5.6-6.9-7.5-12.6-13c-13.4-12.9-12.6-18.5-15.3-15.3
				c-9.7,11.6-17.4,13.8-24.5,22.2c-8,9.4-9.9,13.3-10.9,25c-1.1,13.9,8.6,24.8,10.9,27.4c2.8,3.2,9.5,9.7,20.7,11.5
				c9.7,1.6,17.2-2,19.7-3.1c7.5-3.3,14.6-13,14.5-12.9c2.5-3.5,5.2-7.7,5.8-15.3C467.2,424.1,466.3,418.9,465.2,415.9z
				 M419.3,449.9c0.4,2.4,0.5,2.1,0.5,2.8c0.1,0.9-3.7-1.1-5.5-2.5c-2.3-1.7-4.1-3.3-4.7-3.9c-1.9-1.8-2.5-3-3.7-4.5
				c-1.5-2-2.2-3.7-3.2-6.1c-0.8-1.8-1.7-3.9-2.3-6.7c-0.9-3.8-0.8-6.8-0.8-8.6c0-2.9,0.1-6.1,1.5-9.9c1-2.7,2.3-4.7,2.9-5.7
				c0.6-0.9,1.4-2,3.1-4.2c2.6-3.3,4.4-5.1,5.3-5.9c1.7-1.4,0.8-0.9,4.6-3.9c0.6-0.5,2.4-1.9,4.6-3.8c2.4-2.1,3.6-3.1,4.6-4.2
				c2.4-2.5,4-3.8,4-3.8c0.9,1.9,3.3,6.6,4.1,10.7c0.5,2.8,0.5,6-3,16.6c-2.5,7.6-3.5,9-8.2,21.1c0,0-2.7,5.7-3.6,12.6
				C418.8,444.9,418.8,446.5,419.3,449.9z M448.4,396.8c2.7,2.6,5,5,5.5,5.7c0.6,0.8,1.6,2,2.8,3.8c1.6,2.2,2.5,4,3.4,6.1
				c1.6,3.6,2.5,6.2,2.7,8.6c0.1,1.8,0.3,4.1-0.2,6.8c-0.7,4.1-2.4,7-3.5,8.7c-4.6,7.5-9.2,10.9-14.3,13.1c-6.4,2.7-10.1,3.6-15,2.9
				c-0.6-0.1-2.6-0.2-3.7-2c-0.4-0.6-1-2-0.5-6.5c0.1-1.3,0.4-2.6,1.4-7.2c0.9-3.9,1.7-5.7,2.2-7.1c0.2-0.7,0.7-1.9,3.1-7
				c1.9-4.2,1.8-4.6,3.3-7.8c2-4.3,3-6.4,3.7-8.6c1.1-3.3,1.7-5.5,2.2-8.9c0.7-5.1-1.2-8.6-1.2-8.6"/>
		</g>
	</g>
	<g>
		<g>
			<path class="st0" d="M145.1,379.4c-0.3-0.5-0.7-1-1.1-0.6c-0.6,0.3-1.1,1.1-1.7,1.5c-0.4,0.3-0.8,0.5-1.2,0.8
				c-1.2,1.6-3.1,2.7-5.2,5.1c0,0.1,0-0.1,0,0c-0.1,1.2-0.4,2.9-0.5,4.9c-0.2,1.6-0.7,4.2-0.2,7.5c0.5,3.4,1.1,5.6,2.2,8.9
				c0.8,2.2,1.8,4.3,3.8,8.6c1.5,3.2,1.4,3.7,3.4,7.8c2.4,5,2.9,6.3,3.1,7c0.5,1.4,1.3,3.2,2.2,7.1c1.1,4.6,1.3,5.9,1.5,7.2
				c0.5,4.5-0.1,5.9-0.5,6.5c-1,1.7-2.7,1.8-3.5,2c0.6,0.5,1.1,1.1,1.4,1.7c2.4,0,4.8,0,7.2-0.3c0.1-0.1,0.2-0.2,0.3-0.3
				c-0.2,0.1-0.3,0-0.2-0.1c0.3-0.4,1.1-1.4,1.5-3.8c0.6-3.4,0.5-5-0.1-10c-0.9-6.9-3.7-12.6-3.7-12.6c-4.8-12.1-5.8-13.4-8.3-21
				c-3.6-10.6-3.6-13.8-3.1-16.6C143.2,386.6,144.2,381.5,145.1,379.4"/>
		</g>
		<g>
			<path class="st0" d="M175.1,446C175.1,446,175.1,446.1,175.1,446C175.1,446,175.1,446,175.1,446z"/>
			<path class="st0" d="M179.5,415.9c-1.8-4.6-3.6-7.8-7-11.6c-5-5.6-6.9-7.5-12.6-13c-13.4-12.9-12.6-18.5-15.3-15.3
				c-9.7,11.6-17.4,13.8-24.5,22.2c-8,9.4-9.9,13.3-10.9,25c-1.1,13.9,8.6,24.8,10.9,27.4c2.8,3.2,9.5,9.7,20.7,11.5
				c9.7,1.6,17.2-2,19.7-3.1c7.5-3.3,14.6-13,14.5-12.9c2.5-3.5,5.2-7.7,5.8-15.3C181.6,424.1,180.6,418.9,179.5,415.9z
				 M133.7,449.9c0.4,2.4,0.5,2.1,0.5,2.8c0.1,0.9-3.7-1.1-5.5-2.5c-2.3-1.7-4.1-3.3-4.7-3.9c-1.9-1.8-2.5-3-3.7-4.5
				c-1.5-2-2.2-3.7-3.2-6.1c-0.8-1.8-1.7-3.9-2.3-6.7c-0.9-3.8-0.8-6.8-0.8-8.6c0-2.9,0.1-6.1,1.5-9.9c1-2.7,2.3-4.7,2.9-5.7
				c0.6-0.9,1.4-2,3.1-4.2c2.6-3.3,4.4-5.1,5.3-5.9c1.7-1.4,0.8-0.9,4.6-3.9c0.6-0.5,2.4-1.9,4.6-3.8c2.4-2.1,3.6-3.1,4.6-4.2
				c2.4-2.5,4-3.8,4-3.8c0.9,1.9,3.3,6.6,4.1,10.7c0.5,2.8,0.5,6-3,16.6c-2.5,7.6-3.5,9-8.2,21.1c0,0-2.7,5.7-3.6,12.6
				C133.1,444.9,133.1,446.5,133.7,449.9z M162.7,396.8c2.7,2.6,5,5,5.5,5.7c0.6,0.8,1.6,2,2.8,3.8c1.6,2.2,2.5,4,3.4,6.1
				c1.6,3.6,2.5,6.2,2.7,8.6c0.1,1.8,0.3,4.1-0.2,6.8c-0.7,4.1-2.4,7-3.5,8.7c-4.6,7.5-9.2,10.9-14.3,13.1c-6.4,2.7-10.1,3.6-15,2.9
				c-0.6-0.1-2.6-0.2-3.7-2c-0.4-0.6-1-2-0.5-6.5c0.1-1.3,0.4-2.6,1.4-7.2c0.9-3.9,1.7-5.7,2.2-7.1c0.2-0.7,0.7-1.9,3.1-7
				c1.9-4.2,1.8-4.6,3.3-7.8c2-4.3,3-6.4,3.7-8.6c1.1-3.3,1.7-5.5,2.2-8.9c0.7-5.1-1.2-8.6-1.2-8.6"/>
		</g>
	</g>
</g>
</svg>
