<?xml version="1.0" encoding="utf-8"?>
<!-- Generator: Adobe Illustrator 24.3.0, SVG Export Plug-In . SVG Version: 6.00 Build 0)  -->
<svg version="1.1" id="Layer_1" xmlns="http://www.w3.org/2000/svg" xmlns:xlink="http://www.w3.org/1999/xlink" x="0px" y="0px"
	 viewBox="0 0 576 576" style="enable-background:new 0 0 576 576;" xml:space="preserve">
<style type="text/css">
	.st0{opacity:0.5;}
	.st1{fill:#E5A824;}
</style>
<g>
	<g class="st0">
		<path class="st1" d="M287.8,121.1c-1.3-2.1-3.2-4.3-4.5-2.7c-2.7,1.2-4.7,4.7-7.2,6.3c-1.7,1.1-3.4,2.2-5.1,3.3
			c-4.9,6.9-13,11.4-21.9,21.6c0.1,0.4,0-0.4,0,0c-0.4,5.2-1.9,12.3-2.3,20.6c-0.8,6.6-2.8,17.7-0.7,31.9
			c2.1,14.4,4.5,23.9,9.5,37.7c3.3,9.3,7.6,18.3,16.2,36.3c6.4,13.5,6,15.6,14.4,33.1c10.2,21.4,12.3,26.7,13.3,29.6
			c2.1,5.9,5.5,13.5,9.4,30c4.7,19.5,5.6,25.1,6.2,30.7c2.2,19.2-0.4,24.9-1.9,27.6c-4,7.1-11.4,7.8-14.6,8.4
			c2.4,2.1,4.5,4.5,6.1,7.1c10.2-0.1,20.5-0.2,30.7-1.1c0.4-0.4,0.7-0.8,1.1-1.2c-0.9,0.3-1.4,0.2-1-0.4c1.1-1.9,4.7-5.7,6.4-16
			c2.4-14.3,2.3-21-0.6-42.6c-3.9-29.1-15.8-53.4-15.8-53.4c-20.3-51.2-24.4-57-35.3-89.1c-15.2-44.8-15.3-58.6-13.2-70.4
			C279.8,151.6,283.8,129.7,287.8,121.1"/>
	</g>
	<g>
		<path class="st1" d="M415.1,403.4c0,0.1-0.1,0.1-0.1,0.2C415,403.5,415.1,403.5,415.1,403.4z"/>
		<path class="st1" d="M433.5,275.9c-7.5-19.3-15.3-33.1-29.7-49.3c-21.2-23.8-29.1-31.6-53.5-55.1c-56.7-54.6-53.5-78.4-64.7-65
			c-41,49.3-73.6,58.6-103.8,94.1c-33.8,39.7-42.1,56.2-46.1,106c-4.8,58.8,36.4,105.2,46.1,116c12.1,13.6,40.3,41,88,48.7
			c41.1,6.7,73-8.6,83.7-13.2c31.8-13.8,61.8-55.1,61.6-54.8c10.6-15,21.9-32.8,24.8-65C442.4,310.4,438.4,288.5,433.5,275.9z
			 M239.3,419.7c1.8,10.2,1.9,8.9,2.3,11.7c0.5,4-15.7-4.7-23.4-10.5c-9.7-7.3-17.3-14-20.1-16.6c-8.2-7.6-10.7-12.5-15.7-19.3
			c-6.3-8.5-9.4-15.7-13.8-26c-3.2-7.5-7-16.4-9.8-28.6c-3.7-16.1-3.6-28.9-3.4-36.3c0.2-12.2,0.4-25.8,6.4-42.1
			c4.1-11.4,9.6-20,12.2-24.1c2.4-3.8,6.1-8.5,13.2-17.7c10.8-13.9,18.7-21.7,22.5-24.9c7.2-5.9,3.5-3.9,19.6-16.7
			c2.5-2,10-8,19.3-16.2c10.2-8.9,15.2-13.3,19.6-18c10-10.8,17-16.1,17-16.1c3.7,7.9,14,27.8,17.2,45.4
			c2.2,11.8,2.2,25.6-12.7,70.5c-10.7,32.2-14.8,38.1-34.7,89.4c0,0-11.7,24.4-15.4,53.5C236.8,398.7,236.8,405.4,239.3,419.7z
			 M362.3,194.9c11.3,11.1,21.1,21.3,23.3,24c2.7,3.3,6.6,8.5,12,16.2c6.6,9.4,10.5,16.8,14.5,25.8c6.7,15.1,10.5,26.3,11.3,36.4
			c0.6,7.8,1.3,17.2-0.7,29c-3,17.4-10.2,29.5-14.8,37.1c-19.4,31.8-39.2,46.3-60.8,55.5c-27.1,11.6-42.7,15.2-63.6,12.4
			c-2.7-0.4-11.1-0.8-15.5-8.5c-1.5-2.6-4.2-8.3-2.1-27.6c0.6-5.6,1.5-11.2,6-30.7c3.8-16.5,7.1-24.1,9.2-30c1-2.9,3-8.2,13.1-29.7
			c8.3-17.6,7.8-19.7,14.1-33.2c8.4-18,12.7-27,15.9-36.4c4.8-13.9,7.2-23.4,9.2-37.8c3-21.5-4.9-36.6-4.9-36.6"/>
	</g>
</g>
</svg>
