<?xml version="1.0" encoding="utf-8"?>
<!-- Generator: Adobe Illustrator 24.3.0, SVG Export Plug-In . SVG Version: 6.00 Build 0)  -->
<svg version="1.1" id="Layer_1" xmlns="http://www.w3.org/2000/svg" xmlns:xlink="http://www.w3.org/1999/xlink" x="0px" y="0px"
	 viewBox="0 0 765.5 604.9" style="enable-background:new 0 0 765.5 604.9;" xml:space="preserve">
<style type="text/css">
	.st0{fill:#FFFFFF;}
	.st1{clip-path:url(#SVGID_2_);}
	.st2{fill:none;stroke:#F26725;stroke-width:14.303;stroke-linecap:round;stroke-miterlimit:10;}
	.st3{fill:#F26725;}
	.st4{fill:none;stroke:#F26725;stroke-width:8.4385;stroke-linecap:round;stroke-miterlimit:10;}
	.st5{fill:none;stroke:#F26725;stroke-width:3.878;stroke-linecap:round;stroke-miterlimit:10;}
	.st6{fill:none;stroke:#F26725;stroke-width:2.2879;stroke-linecap:round;stroke-miterlimit:10;}
	.st7{fill:none;stroke:#F26725;stroke-width:2.169;stroke-linecap:round;stroke-miterlimit:10;}
	.st8{fill:none;stroke:#000000;stroke-width:14.303;stroke-linecap:round;stroke-miterlimit:10;}
	.st9{fill:none;stroke:#000000;stroke-width:8.4385;stroke-linecap:round;stroke-miterlimit:10;}
	.st10{fill:none;stroke:#000000;stroke-width:7.2092;stroke-linecap:round;stroke-miterlimit:10;}
	.st11{fill:none;stroke:#000000;stroke-width:4.2533;stroke-linecap:round;stroke-miterlimit:10;}
	.st12{fill:none;stroke:#000000;stroke-width:3.878;stroke-linecap:round;stroke-miterlimit:10;}
	.st13{fill:none;stroke:#000000;stroke-width:2.2879;stroke-linecap:round;stroke-miterlimit:10;}
	.st14{fill:none;stroke:#000000;stroke-width:5;stroke-linecap:round;stroke-miterlimit:10;}
	.st15{fill:none;stroke:#000000;stroke-width:2.169;stroke-linecap:round;stroke-miterlimit:10;}
	.st16{fill:none;}
	.st17{fill:none;stroke:#F26725;stroke-width:7.2092;stroke-linecap:round;stroke-miterlimit:10;}
	.st18{fill:none;stroke:#F26725;stroke-width:4.2533;stroke-linecap:round;stroke-miterlimit:10;}
	.st19{fill:none;stroke:#F26725;stroke-width:5;stroke-linecap:round;stroke-miterlimit:10;}
</style>
<rect x="0.2" y="0.2" class="st0" width="765.2" height="604.4"/>
<g>
	<defs>
		<rect id="SVGID_1_" x="0.2" y="0.2" width="765" height="604.4"/>
	</defs>
	<clipPath id="SVGID_2_">
		<use xlink:href="#SVGID_1_"  style="overflow:visible;"/>
	</clipPath>
	<g class="st1">
		<g>
			<g>
				<path class="st2" d="M245.2,0.2c93.6,134.2,110.7,357.9-5.8,425.6C113.3,499.3-9,386,26.2,268.5c19.9-66.4,124-97.1,166.6-15.9
					c13.6,25.9,11.6,71.3-16.7,88.5c-34.3,20.8-77.4,3.6-88-29.6c-11.1-34.4,27.2-53.9,50.2-28.6"/>
				<path class="st3" d="M291.7,89.7c6.3,23.8-54.3,30.3-63.7,49.1c-11.2,22.4-8.3-36.5,19.8-54C264.1,74.8,288.6,77.9,291.7,89.7z"
					/>
				<path class="st3" d="M317.2,169.6c-10.2,15.4,31.3,34.8,33.5,50.5c2.6,18.7,14.7-24-1.1-43.3
					C340.5,165.7,322.3,161.9,317.2,169.6z"/>
				<path class="st3" d="M313.9,292.5c7.2,13.1-27.6,26-30.4,38.5c-3.3,14.9-10.2-20.3,3.8-34.8
					C295.4,287.8,310.3,285.9,313.9,292.5z"/>
			</g>
			<g>
				<path class="st4" d="M297.6,358.9c-7.1,96.5,51.5,215,130.9,213.8c86-1.3,113.8-95.9,60.7-144.7c-30-27.5-92-11.4-89.1,42.7
					c0.9,17.2,15.5,39.6,35.1,39.7c23.7,0.1,40.3-21.8,35.7-41.8c-4.7-20.8-30-19-34,0.8"/>
				<path class="st3" d="M300.9,418.4c4,13.9,36.6-1.2,47,5.5c12.4,7.9-6.8-21-26.2-21.3C310.4,402.4,298.9,411.4,300.9,418.4z"/>
				<path class="st3" d="M312,466.6c9.8,4.7-5.4,27.2-1.8,35.8c4.3,10.3-14.6-7.7-12.4-22.3C299,471.7,307.1,464.2,312,466.6z"/>
				<path class="st3" d="M350.6,527.8c0.3,8.8,21.8,4.7,27,10.2c6.2,6.5-0.9-13.4-12.4-16.5C358.6,519.8,350.5,523.4,350.6,527.8z"
					/>
			</g>
			<g>
				<path class="st5" d="M672.2,611.6c25.5-36.3,30.1-96.7-1.6-115c-34.3-19.8-67.6,10.8-58,42.5c5.4,17.9,33.7,26.2,45.3,4.3
					c3.7-7,3.2-19.3-4.6-23.9c-9.3-5.6-21.1-1-24,8c-3,9.3,7.4,14.6,13.7,7.7"/>
				<path class="st3" d="M684.9,587.4c1.7-6.4-14.8-8.2-17.3-13.3c-3.1-6.1-2.3,9.9,5.4,14.6C677.3,591.4,684,590.6,684.9,587.4z"/>
				<path class="st3" d="M691.8,565.8c-2.8-4.2,8.5-9.4,9.1-13.7c0.7-5.1,4,6.5-0.3,11.7C698.2,566.9,693.2,567.9,691.8,565.8z"/>
				<path class="st3" d="M690.9,532.6c2-3.5-7.5-7-8.3-10.4c-0.9-4-2.8,5.5,1,9.4C685.9,533.9,689.9,534.4,690.9,532.6z"/>
			</g>
			<g>
				<path class="st6" d="M686.5,514.7c-1.9-26.1,14-58.1,35.6-57.8c23.4,0.3,31,25.9,16.5,39.1c-8.2,7.4-25,3.1-24.3-11.5
					c0.2-4.7,4.2-10.7,9.5-10.7c6.4,0,11,5.9,9.7,11.3c-1.3,5.6-8.2,5.1-9.3-0.2"/>
				<path class="st3" d="M687.4,498.6c1.1-3.8,10,0.3,12.8-1.5c3.4-2.1-1.8,5.7-7.1,5.8C690,502.9,686.8,500.5,687.4,498.6z"/>
				<path class="st3" d="M690.4,485.6c2.7-1.3-1.5-7.3-0.5-9.7c1.2-2.8-4,2.1-3.4,6C686.9,484.2,689.1,486.2,690.4,485.6z"/>
				<path class="st3" d="M700.9,469c0.1-2.4,5.9-1.3,7.3-2.8c1.7-1.8-0.3,3.6-3.4,4.5C703.1,471.2,700.9,470.2,700.9,469z"/>
			</g>
			<g>
				<path class="st7" d="M51.7,610.1C73.6,581.9,44.3,524.6,67,507c25.3-19.6,54.5,8.7,46.8,34.3c-4.4,14.5-27.2,21.2-36.5,3.5
					c-3-5.6-2.6-15.5,3.7-19.3c7.5-4.5,17-0.8,19.3,6.4c2.4,7.5-6,11.7-11,6.2"/>
				<path class="st3" d="M59.4,580.3c-1.4-5.2,11.9-6.6,14-10.7c2.5-4.9,1.8,8-4.3,11.8C65.5,583.5,60.1,582.9,59.4,580.3z"/>
				<path class="st3" d="M58.6,562.9c2.2-3.4-6.9-7.6-7.4-11c-0.6-4.1-3.2,5.2,0.2,9.4C53.5,563.7,57.5,564.5,58.6,562.9z"/>
				<path class="st3" d="M58,536.1c-1.6-2.9,6.1-5.7,6.7-8.4c0.7-3.2,2.2,4.4-0.8,7.6C62.1,537.1,58.8,537.5,58,536.1z"/>
			</g>
		</g>
		<g>
			<g>
				<path class="st8" d="M520.8,605.2c-93.6-134.2-110.7-357.9,5.8-425.6C652.7,106.2,775,219.5,739.8,337
					c-19.9,66.4-124,97.1-166.6,15.9c-13.6-25.9-11.6-71.3,16.7-88.5c34.3-20.8,77.4-3.6,88,29.6c11.1,34.4-27.2,53.9-50.2,28.6"/>
				<path d="M474.2,515.7c-6.3-23.8,54.3-30.3,63.7-49.1c11.2-22.4,8.3,36.5-19.8,54C501.9,530.6,477.4,527.6,474.2,515.7z"/>
				<path d="M448.8,435.9c10.2-15.4-31.3-34.8-33.5-50.5c-2.6-18.7-14.7,24,1.1,43.3C425.5,439.7,443.7,443.5,448.8,435.9z"/>
				<path d="M452.1,313c-7.2-13.1,27.6-26,30.4-38.5c3.3-14.9,10.2,20.3-3.8,34.8C470.6,317.7,455.7,319.5,452.1,313z"/>
			</g>
			<g>
				<path class="st9" d="M468.4,246.6c7.1-96.5-51.5-215-130.9-213.8c-86,1.3-113.8,95.9-60.7,144.7c30,27.5,92,11.4,89.1-42.7
					c-0.9-17.2-15.5-39.6-35.1-39.7c-23.7-0.1-40.3,21.8-35.7,41.8c4.7,20.8,30,19,34-0.8"/>
				<path d="M465.1,187.1c-4-13.9-36.6,1.2-47-5.5c-12.4-7.9,6.8,21,26.2,21.3C455.5,203.1,467.1,194.1,465.1,187.1z"/>
				<path d="M454,138.9c-9.8-4.7,5.4-27.2,1.8-35.8c-4.3-10.3,14.6,7.7,12.4,22.3C466.9,133.7,458.9,141.2,454,138.9z"/>
				<path d="M415.4,77.7c-0.3-8.8-21.8-4.7-27-10.2c-6.2-6.5,0.9,13.4,12.4,16.5C407.4,85.7,415.5,82.1,415.4,77.7z"/>
			</g>
			<g>
				<path class="st10" d="M223.6,614.6c47.4-67.4,56-179.8-2.9-213.8c-63.8-36.9-125.7,20-107.9,79.1c10.1,33.3,62.7,48.8,84.2,8
					c6.9-13,5.9-35.8-8.5-44.5c-17.4-10.5-39.1-1.8-44.5,14.8c-5.6,17.3,13.8,27.1,25.4,14.4"/>
				<path d="M247.1,569.6c3.2-11.9-27.4-15.2-32.2-24.7c-5.7-11.3-4.2,18.3,10,27.1C233.1,577.1,245.5,575.6,247.1,569.6z"/>
				<path d="M260,529.5c-5.1-7.7,15.9-17.5,17-25.4c1.3-9.4,7.4,12-0.6,21.7C271.8,531.5,262.6,533.4,260,529.5z"/>
				<path d="M258.3,467.8c3.6-6.6-14-13-15.4-19.3c-1.7-7.5-5.2,10.2,1.9,17.5C249,470.1,256.5,471.1,258.3,467.8z"/>
			</g>
			<g>
				<path class="st11" d="M250.1,431.4c-3.6-48.5,26.1-108,66.2-107.4c43.5,0.6,57.6,48.2,30.7,72.7c-15.2,13.8-46.5,5.7-45.1-21.4
					c0.5-8.7,7.9-19.9,17.7-19.9c12,0,20.4,10.9,18.1,21c-2.4,10.5-15.2,9.5-17.2-0.4"/>
				<path d="M251.8,401.6c2-7,18.5,0.6,23.8-2.8c6.3-4-3.4,10.6-13.3,10.7C256.6,409.6,250.8,405.1,251.8,401.6z"/>
				<path d="M257.4,377.3c4.9-2.4-2.7-13.7-0.9-18c2.2-5.2-7.4,3.9-6.3,11.2C250.8,374.8,254.9,378.5,257.4,377.3z"/>
				<path d="M276.9,346.6c0.2-4.4,11-2.4,13.6-5.1c3.1-3.3-0.5,6.7-6.3,8.3C280.9,350.6,276.8,348.8,276.9,346.6z"/>
			</g>
			<g>
				<path class="st12" d="M93.8-6.1c-25.5,36.3-30.1,96.7,1.6,115c34.3,19.8,67.6-10.8,58-42.5c-5.4-17.9-33.7-26.2-45.3-4.3
					c-3.7,7-3.2,19.3,4.6,23.9c9.3,5.6,21.1,1,24-8c3-9.3-7.4-14.6-13.7-7.7"/>
				<path d="M81.1,18.1c-1.7,6.4,14.8,8.2,17.3,13.3c3.1,6.1,2.3-9.9-5.4-14.6C88.6,14,82,14.8,81.1,18.1z"/>
				<path d="M74.2,39.6c2.8,4.2-8.5,9.4-9.1,13.7c-0.7,5.1-4-6.5,0.3-11.7C67.8,38.6,72.8,37.6,74.2,39.6z"/>
				<path d="M75.1,72.8c-2,3.5,7.5,7,8.3,10.4c0.9,4,2.8-5.5-1-9.4C80.1,71.6,76,71.1,75.1,72.8z"/>
			</g>
			<g>
				<path class="st13" d="M79.5,90.8c1.9,26.1-14,58.1-35.6,57.8c-23.4-0.3-31-25.9-16.5-39.1c8.2-7.4,25-3.1,24.3,11.5
					c-0.2,4.7-4.2,10.7-9.5,10.7c-6.4,0-11-5.9-9.7-11.3c1.3-5.6,8.2-5.1,9.3,0.2"/>
				<path d="M78.6,106.8c-1.1,3.8-10-0.3-12.8,1.5c-3.4,2.1,1.8-5.7,7.1-5.8C76,102.5,79.1,105,78.6,106.8z"/>
				<path d="M75.6,119.9c-2.7,1.3,1.5,7.3,0.5,9.7c-1.2,2.8,4-2.1,3.4-6C79.1,121.3,76.9,119.2,75.6,119.9z"/>
				<path d="M65.1,136.4c-0.1,2.4-5.9,1.3-7.3,2.8c-1.7,1.8,0.3-3.6,3.4-4.5C62.9,134.2,65.1,135.2,65.1,136.4z"/>
			</g>
			<g>
				<path class="st14" d="M247.9,425.2c-50.5-65,16.4-206-35.9-246.6c-58.2-45.2-125.7,20-107.9,79.1c10.1,33.3,62.7,48.8,84.2,8
					c6.9-13,5.9-35.8-8.5-44.5c-17.4-10.5-39.1-1.8-44.5,14.8c-5.6,17.3,13.8,27.1,25.4,14.4"/>
				<path d="M229.4,347.5c3.2-11.9-27.4-15.2-32.2-24.7c-5.7-11.3-4.2,18.3,10,27.1C215.4,355,227.8,353.4,229.4,347.5z"/>
				<path d="M231.4,307.4c-5.1-7.7,15.9-17.5,17-25.4c1.3-9.4,7.4,12-0.6,21.7C243.2,309.3,234,311.2,231.4,307.4z"/>
				<path d="M232.7,245.7c3.6-6.6-14-13-15.4-19.3c-1.7-7.5-5.2,10.2,1.9,17.5C223.4,248,230.9,248.9,232.7,245.7z"/>
			</g>
			<g>
				<path class="st15" d="M714.3-4.7c-21.9,28.2,7.4,85.5-15.2,103.1c-25.3,19.6-54.5-8.7-46.8-34.3c4.4-14.5,27.2-21.2,36.5-3.5
					c3,5.6,2.6,15.5-3.7,19.3c-7.5,4.5-17,0.8-19.3-6.4c-2.4-7.5,6-11.7,11-6.2"/>
				<path d="M706.5,25.2c1.4,5.2-11.9,6.6-14,10.7c-2.5,4.9-1.8-8,4.3-11.8C700.5,21.9,705.9,22.6,706.5,25.2z"/>
				<path d="M707.4,42.6c-2.2,3.4,6.9,7.6,7.4,11c0.6,4.1,3.2-5.2-0.2-9.4C712.5,41.7,708.5,40.9,707.4,42.6z"/>
				<path d="M708,69.4c1.6,2.9-6.1,5.7-6.7,8.4c-0.7,3.2-2.2-4.4,0.8-7.6C703.9,68.3,707.2,67.9,708,69.4z"/>
			</g>
		</g>
		<rect id="SVGID_3_" x="205.7" y="86.2" class="st16" width="524.4" height="524.3"/>
	</g>
	<g class="st1">
		<path class="st17" d="M542.1-9.1c-47.4,67.4-56,179.8,2.9,213.8c63.8,36.9,125.7-20,107.9-79.1c-10.1-33.3-62.7-48.8-84.2-8
			c-6.9,13-5.9,35.8,8.5,44.5c17.4,10.5,39.1,1.8,44.5-14.8c5.6-17.3-13.8-27.1-25.4-14.4"/>
		<path class="st3" d="M518.5,35.8c-3.2,11.9,27.4,15.2,32.2,24.7c5.7,11.3,4.2-18.3-10-27.1C532.5,28.3,520.1,29.9,518.5,35.8z"/>
		<path class="st3" d="M505.6,75.9c5.1,7.7-15.9,17.5-17,25.4c-1.3,9.4-7.4-12,0.6-21.7C493.9,74,503.1,72.1,505.6,75.9z"/>
		<path class="st3" d="M507.3,137.7c-3.6,6.6,14,13,15.4,19.3c1.7,7.5,5.2-10.2-1.9-17.5C516.7,135.3,509.1,134.4,507.3,137.7z"/>
	</g>
	<g class="st1">
		<path class="st18" d="M515.6,174c3.6,48.5-26.1,108-66.2,107.4c-43.5-0.6-57.6-48.2-30.7-72.7c15.2-13.8,46.5-5.7,45.1,21.4
			c-0.5,8.7-7.9,19.9-17.7,19.9c-12,0-20.4-10.9-18.1-21c2.4-10.5,15.2-9.5,17.2,0.4"/>
		<path class="st3" d="M513.9,203.9c-2,7-18.5-0.6-23.8,2.8c-6.3,4,3.4-10.6,13.3-10.7C509.1,195.9,514.9,200.4,513.9,203.9z"/>
		<path class="st3" d="M508.3,228.1c-4.9,2.4,2.7,13.7,0.9,18c-2.2,5.2,7.4-3.9,6.3-11.2C514.8,230.7,510.7,226.9,508.3,228.1z"/>
		<path class="st3" d="M488.7,258.8c-0.2,4.4-11,2.4-13.6,5.1c-3.1,3.3,0.5-6.7,6.3-8.3C484.7,254.8,488.8,256.6,488.7,258.8z"/>
	</g>
	<g class="st1">
		<path class="st19" d="M518.4,183c50.5,65-17.1,203.2,35.1,243.8c58.2,45.2,125.7-20,107.9-79.1c-10.1-33.3-62.7-48.8-84.2-8
			c-6.9,13-5.9,35.8,8.5,44.5c17.4,10.5,39.1,1.8,44.5-14.8c5.6-17.3-13.8-27.1-25.4-14.4"/>
		<path class="st3" d="M536.3,258c-3.2,11.9,27.4,15.2,32.2,24.7c5.7,11.3,4.2-18.3-10-27.1C550.3,250.5,537.8,252,536.3,258z"/>
		<path class="st3" d="M534.3,298.1c5.1,7.7-15.9,17.5-17,25.4c-1.3,9.4-7.4-12,0.6-21.7C522.5,296.1,531.7,294.2,534.3,298.1z"/>
		<path class="st3" d="M532.9,359.8c-3.6,6.6,14,13,15.4,19.3c1.7,7.5,5.2-10.2-1.9-17.5C542.3,357.4,534.7,356.5,532.9,359.8z"/>
	</g>
</g>
</svg>
