<?xml version="1.0" encoding="utf-8"?>
<!-- Generator: Adobe Illustrator 24.3.0, SVG Export Plug-In . SVG Version: 6.00 Build 0)  -->
<svg version="1.1" id="Layer_1" xmlns="http://www.w3.org/2000/svg" xmlns:xlink="http://www.w3.org/1999/xlink" x="0px" y="0px"
	 viewBox="0 0 418 418" style="enable-background:new 0 0 418 418;" xml:space="preserve">
<style type="text/css">
	.st0{fill:none;stroke:#F26725;stroke-width:12.88;stroke-linecap:round;stroke-linejoin:round;stroke-miterlimit:10;}
	.st1{fill:none;stroke:#F26725;stroke-width:7.36;stroke-linecap:round;stroke-miterlimit:10;}
	.st2{fill:#F26725;}
	.st3{fill:none;stroke:#F26725;stroke-width:12.88;stroke-linecap:round;stroke-miterlimit:10;}
</style>
<g>
	<path class="st0" d="M389,356.2H29V115.3c23.8-10.6,87.9-53.3,178.6-53.6c92.3-0.3,157.8,43,181.4,53.6
		C389,195.6,389,275.9,389,356.2z"/>
	<g>
		<path class="st1" d="M97,273.8c-5.2-3.7-16.9-2.1-18.4-18.1c-1.8-19.7,16.2-26.8,40.5-46.1c69.7-55.4,62.4-119.6,93.3-123.4
			c16.3-2,21.4,20.6,21.4,20.6"/>
		<path class="st2" d="M108.6,218.1c5.8-10.6,29.8,7.6,39.5,4.1c11.6-4.2-9.4,15.9-25.4,12.5C113.5,232.9,105.7,223.4,108.6,218.1z"
			/>
		<path class="st2" d="M81.6,240.2c7.6-4.1-5.2-21.3-2.7-28.2c3.1-8.3-11.4,6.6-9.1,18C71.1,236.6,77.8,242.2,81.6,240.2z"/>
		<path class="st2" d="M176.5,137.8c3.7-14.5,38,0.1,48.7-7.1c12.7-8.6-6.4,21.9-26.6,22.8C186.9,154,174.7,145.1,176.5,137.8z"/>
		<path class="st2" d="M161.8,159.9c9.3-2.7-1-24.6,3.4-31.6c5.2-8.4-14,4.7-14.1,17.8C151.1,153.6,157.1,161.3,161.8,159.9z"/>
		<path class="st3" d="M111.6,346.7c-21.3-95.4-25.9-186.2,29.6-222.3C251.6,52.7,365,183.6,346.4,265.9
			c-11.5,51.2-88.9,76.9-150.5,14.3"/>
		<path class="st3" d="M180,213.6c3.5,21.5,35.9,24.5,38.3-5.5"/>
		<path class="st3" d="M285.8,213.6c-3.5,21.5-35.9,24.5-38.3-5.5"/>
		<path class="st3" d="M175.8,279.8c17.9,5.7,23.8-4.5,23.8-13.9"/>
	</g>
</g>
</svg>
