<?xml version="1.0" encoding="utf-8"?>
<!-- Generator: Adobe Illustrator 24.3.0, SVG Export Plug-In . SVG Version: 6.00 Build 0)  -->
<svg version="1.1" id="Layer_1" xmlns="http://www.w3.org/2000/svg" xmlns:xlink="http://www.w3.org/1999/xlink" x="0px" y="0px"
	 viewBox="0 0 345.6 284.8" style="enable-background:new 0 0 345.6 284.8;" xml:space="preserve">
<style type="text/css">
	.st0{fill:#FFFFFF;stroke:#000000;stroke-width:11.9376;stroke-linecap:round;stroke-linejoin:round;stroke-miterlimit:10;}
	.st1{fill:none;stroke:#000000;stroke-width:6.8215;stroke-linecap:round;stroke-miterlimit:10;}
	.st2{fill:none;stroke:#000000;stroke-width:11.9376;stroke-linecap:round;stroke-miterlimit:10;}
</style>
<g>
	<path class="st0" d="M339.6,278.9H6V55.6C28,45.7,87.5,6.2,171.5,6C257,5.7,317.7,45.8,339.6,55.6
		C339.6,130,339.6,204.4,339.6,278.9z"/>
	<g>
		<path class="st1" d="M69,205.9c-4.9-3.4-15.7-2-17.1-16.8c-1.7-18.3,15-24.8,37.6-42.7C154.1,95.1,147.3,35.5,176,32
			c15.1-1.9,19.8,19.1,19.8,19.1"/>
		<path d="M79.7,154.3c5.4-9.8,27.6,7.1,36.6,3.8c10.8-3.9-8.7,14.7-23.5,11.6C84.3,168,77,159.2,79.7,154.3z"/>
		<path d="M54.7,174.7c7.1-3.8-4.9-19.8-2.5-26.2c2.8-7.7-10.6,6.1-8.5,16.7C45,171.4,51.2,176.6,54.7,174.7z"/>
		<path d="M142.7,79.9c3.4-13.4,35.3,0.1,45.1-6.6c11.7-7.9-5.9,20.3-24.7,21.1C152.3,94.9,141,86.6,142.7,79.9z"/>
		<path d="M129,100.3c8.6-2.5-0.9-22.8,3.1-29.3c4.8-7.8-13,4.3-13,16.5C119.1,94.4,124.7,101.6,129,100.3z"/>
		<path class="st2" d="M82.6,273.5c-19.8-88.4-24-172.6,27.4-206c102.3-66.5,207.4,54.8,190.2,131.1
			c-10.7,47.4-82.4,71.2-139.5,13.2"/>
		<path class="st2" d="M145.9,150.1c3.2,19.9,33.2,22.7,35.5-5.1"/>
		<path class="st2" d="M244,150.1c-3.2,19.9-33.2,22.7-35.5-5.1"/>
		<path class="st2" d="M142.1,211.5c16.6,5.3,22-4.1,22-12.9"/>
	</g>
</g>
</svg>
