<?xml version="1.0" encoding="utf-8"?>
<!-- Generator: Adobe Illustrator 24.3.0, SVG Export Plug-In . SVG Version: 6.00 Build 0)  -->
<svg version="1.1" id="Layer_1" xmlns="http://www.w3.org/2000/svg" xmlns:xlink="http://www.w3.org/1999/xlink" x="0px" y="0px"
	 viewBox="0 0 843.7 594.3" style="enable-background:new 0 0 843.7 594.3;" xml:space="preserve">
<style type="text/css">
	.st0{fill:#FFFFFF;stroke:#000000;stroke-width:11.9376;stroke-linecap:round;stroke-linejoin:round;stroke-miterlimit:10;}
	.st1{fill:none;stroke:#000000;stroke-width:6.8215;stroke-linecap:round;stroke-miterlimit:10;}
	.st2{fill:none;stroke:#000000;stroke-width:11.9376;stroke-linecap:round;stroke-miterlimit:10;}
	.st3{stroke:#FFFFFF;stroke-width:11.9376;stroke-linecap:round;stroke-linejoin:round;stroke-miterlimit:10;}
	.st4{fill:none;stroke:#FFFFFF;stroke-width:6.8215;stroke-linecap:round;stroke-miterlimit:10;}
	.st5{fill:#FFFFFF;}
	.st6{fill:none;stroke:#FFFFFF;stroke-width:11.9376;stroke-linecap:round;stroke-miterlimit:10;}
	.st7{fill:#FFFFFF;stroke:#000000;stroke-width:3.827;stroke-linecap:round;stroke-linejoin:round;stroke-miterlimit:10;}
	.st8{fill:none;stroke:#000000;stroke-width:2.1869;stroke-linecap:round;stroke-miterlimit:10;}
	.st9{fill:none;stroke:#000000;stroke-width:3.827;stroke-linecap:round;stroke-miterlimit:10;}
	.st10{stroke:#FFFFFF;stroke-width:3.827;stroke-linecap:round;stroke-linejoin:round;stroke-miterlimit:10;}
	.st11{fill:none;stroke:#FFFFFF;stroke-width:2.1869;stroke-linecap:round;stroke-miterlimit:10;}
	.st12{fill:none;stroke:#FFFFFF;stroke-width:3.827;stroke-linecap:round;stroke-miterlimit:10;}
</style>
<g>
	<g>
		<path class="st0" d="M398.4,325.2H64.7V102c22-9.9,81.5-49.4,165.5-49.6c85.6-0.3,146.2,39.8,168.2,49.6
			C398.4,176.4,398.4,250.8,398.4,325.2z"/>
		<g>
			<path class="st1" d="M127.8,252.3c-4.9-3.4-15.7-2-17.1-16.8c-1.7-18.3,15-24.8,37.6-42.7c64.6-51.3,57.8-110.9,86.5-114.4
				c15.1-1.9,19.8,19.1,19.8,19.1"/>
			<path d="M138.5,200.7c5.4-9.8,27.6,7.1,36.6,3.8c10.8-3.9-8.7,14.7-23.5,11.6C143,214.3,135.8,205.6,138.5,200.7z"/>
			<path d="M113.4,221.1c7.1-3.8-4.9-19.8-2.5-26.2c2.8-7.7-10.6,6.1-8.5,16.7C103.7,217.7,109.9,223,113.4,221.1z"/>
			<path d="M201.4,126.2c3.4-13.4,35.3,0.1,45.1-6.6c11.7-7.9-5.9,20.3-24.7,21.1C211.1,141.2,199.7,132.9,201.4,126.2z"/>
			<path d="M187.8,146.7c8.6-2.5-0.9-22.8,3.1-29.3c4.8-7.8-13,4.3-13,16.5C177.8,140.8,183.5,147.9,187.8,146.7z"/>
			<path class="st2" d="M141.3,319.8c-19.8-88.4-24-172.6,27.4-206c102.3-66.5,207.4,54.8,190.2,131.1
				c-10.7,47.4-82.4,71.2-139.5,13.2"/>
			<path class="st2" d="M204.6,196.5c3.2,19.9,33.2,22.7,35.5-5.1"/>
			<path class="st2" d="M302.8,196.5c-3.2,19.9-33.2,22.7-35.5-5.1"/>
			<path class="st2" d="M200.8,257.8c16.6,5.3,22-4.1,22-12.9"/>
		</g>
	</g>
	<g>
		<path class="st3" d="M779,326H445.4V102.8c22-9.9,81.5-49.4,165.5-49.6c85.6-0.3,146.2,39.8,168.2,49.6
			C779,177.2,779,251.6,779,326z"/>
		<g>
			<path class="st4" d="M508.4,253.1c-4.9-3.4-15.7-2-17.1-16.8c-1.7-18.3,15-24.8,37.6-42.7c64.6-51.3,57.8-110.9,86.5-114.4
				c15.1-1.9,19.8,19.1,19.8,19.1"/>
			<path class="st5" d="M519.1,201.4c5.4-9.8,27.6,7.1,36.6,3.8c10.8-3.9-8.7,14.7-23.5,11.6C523.7,215.1,516.5,206.4,519.1,201.4z"
				/>
			<path class="st5" d="M494.1,221.9c7.1-3.8-4.9-19.8-2.5-26.2c2.8-7.7-10.6,6.1-8.5,16.7C484.4,218.5,490.6,223.7,494.1,221.9z"/>
			<path class="st5" d="M582.1,127c3.4-13.4,35.3,0.1,45.1-6.6c11.7-7.9-5.9,20.3-24.7,21.1C591.7,142,580.4,133.7,582.1,127z"/>
			<path class="st5" d="M568.4,147.4c8.6-2.5-0.9-22.8,3.1-29.3c4.8-7.8-13,4.3-13,16.5C558.5,141.6,564.1,148.7,568.4,147.4z"/>
			<path class="st6" d="M522,320.6c-19.8-88.4-24-172.6,27.4-206c102.3-66.5,207.4,54.8,190.2,131.1
				c-10.7,47.4-82.4,71.2-139.5,13.2"/>
			<path class="st6" d="M585.3,197.3c3.2,19.9,33.2,22.7,35.5-5.1"/>
			<path class="st6" d="M683.4,197.3c-3.2,19.9-33.2,22.7-35.5-5.1"/>
			<path class="st6" d="M581.5,258.6c16.6,5.3,22-4.1,22-12.9"/>
		</g>
	</g>
	<g>
		<path class="st7" d="M284.8,545.8h-107v-71.6c7.1-3.2,26.1-15.8,53.1-15.9c27.4-0.1,46.9,12.8,53.9,15.9
			C284.8,498.1,284.8,522,284.8,545.8z"/>
		<g>
			<path class="st8" d="M198.1,522.4c-1.6-1.1-5-0.6-5.5-5.4c-0.5-5.9,4.8-8,12-13.7c20.7-16.5,18.5-35.5,27.7-36.7
				c4.9-0.6,6.4,6.1,6.4,6.1"/>
			<path d="M201.5,505.9c1.7-3.2,8.8,2.3,11.7,1.2c3.5-1.2-2.8,4.7-7.5,3.7C203,510.3,200.7,507.5,201.5,505.9z"/>
			<path d="M193.5,512.4c2.3-1.2-1.6-6.3-0.8-8.4c0.9-2.5-3.4,2-2.7,5.4C190.4,511.4,192.4,513,193.5,512.4z"/>
			<path d="M221.7,482c1.1-4.3,11.3,0,14.5-2.1c3.8-2.5-1.9,6.5-7.9,6.8C224.8,486.8,221.2,484.2,221.7,482z"/>
			<path d="M217.3,488.6c2.8-0.8-0.3-7.3,1-9.4c1.6-2.5-4.2,1.4-4.2,5.3C214.1,486.7,215.9,489,217.3,488.6z"/>
			<path class="st9" d="M202.4,544.1c-6.3-28.3-7.7-55.3,8.8-66c32.8-21.3,66.5,17.6,61,42c-3.4,15.2-26.4,22.8-44.7,4.2"/>
			<path class="st9" d="M222.7,504.6c1,6.4,10.7,7.3,11.4-1.6"/>
			<path class="st9" d="M254.2,504.6c-1,6.4-10.7,7.3-11.4-1.6"/>
			<path class="st9" d="M221.5,524.2c5.3,1.7,7.1-1.3,7.1-4.1"/>
		</g>
	</g>
	<g>
		<path class="st10" d="M665.9,546.1h-107v-71.6c7.1-3.2,26.1-15.8,53.1-15.9c27.4-0.1,46.9,12.8,53.9,15.9
			C665.9,498.4,665.9,522.2,665.9,546.1z"/>
		<g>
			<path class="st11" d="M579.1,522.7c-1.6-1.1-5-0.6-5.5-5.4c-0.5-5.9,4.8-8,12-13.7c20.7-16.5,18.5-35.5,27.7-36.7
				c4.9-0.6,6.4,6.1,6.4,6.1"/>
			<path class="st5" d="M582.6,506.1c1.7-3.2,8.8,2.3,11.7,1.2c3.5-1.2-2.8,4.7-7.5,3.7C584,510.5,581.7,507.7,582.6,506.1z"/>
			<path class="st5" d="M574.5,512.7c2.3-1.2-1.6-6.3-0.8-8.4c0.9-2.5-3.4,2-2.7,5.4C571.4,511.6,573.4,513.3,574.5,512.7z"/>
			<path class="st5" d="M602.8,482.3c1.1-4.3,11.3,0,14.5-2.1c3.8-2.5-1.9,6.5-7.9,6.8C605.8,487.1,602.2,484.4,602.8,482.3z"/>
			<path class="st5" d="M598.4,488.8c2.8-0.8-0.3-7.3,1-9.4c1.6-2.5-4.2,1.4-4.2,5.3C595.2,487,597,489.2,598.4,488.8z"/>
			<path class="st12" d="M583.5,544.3c-6.3-28.3-7.7-55.3,8.8-66c32.8-21.3,66.5,17.6,61,42c-3.4,15.2-26.4,22.8-44.7,4.2"/>
			<path class="st12" d="M603.8,504.8c1,6.4,10.7,7.3,11.4-1.6"/>
			<path class="st12" d="M635.2,504.8c-1,6.4-10.7,7.3-11.4-1.6"/>
			<path class="st12" d="M602.6,524.5c5.3,1.7,7.1-1.3,7.1-4.1"/>
		</g>
	</g>
</g>
</svg>
