<?xml version="1.0" encoding="utf-8"?>
<!-- Generator: Adobe Illustrator 24.3.0, SVG Export Plug-In . SVG Version: 6.00 Build 0)  -->
<svg version="1.1" id="Layer_1" xmlns="http://www.w3.org/2000/svg" xmlns:xlink="http://www.w3.org/1999/xlink" x="0px" y="0px"
	 viewBox="0 0 779.1 248.9" style="enable-background:new 0 0 779.1 248.9;" xml:space="preserve">
<style type="text/css">
	.st0{fill:#FFFFFF;stroke:#000000;stroke-miterlimit:10;}
	.st1{fill:#FFFFFF;stroke:#000000;stroke-width:8.8652;stroke-linecap:round;stroke-miterlimit:10;}
	.st2{fill:none;stroke:#000000;stroke-width:8.8652;stroke-linecap:round;stroke-miterlimit:10;}
</style>
<rect x="-1.1" class="st0" width="781.4" height="248.9"/>
<g>
	<g>
		<path class="st1" d="M602,77.3c-18.9-1.1-38.7,8.6-37.7,32.4c2,46,149.4,83.9,131.9,72.4C638.3,144,621.5,78.4,602,77.3z"/>
		<path class="st2" d="M552.9,67.9c13.5-10.5,17.9,7.8,22.9,14.5"/>
		<path d="M567.4,116.6c-0.2-1.9-5.3-23.9,8.3-34.2c20.5-15.4,36.6,4.7,36.5,5.3c-0.1,0.5-6.8-4.8-10.5-2.4
			c-5.1,3.3,3.2,10.5-3.2,14c-5,2.7-9.6-7.6-14.9-3.5c-4.5,3.5,2.3,9.4-3.3,12.2c-5,2.5-2.4-5.1-8.4-3.1
			C566.2,106.9,570,111.2,567.4,116.6z"/>
	</g>
	<g>
		<path class="st1" d="M118.9,125c-8.4-5.8-27.1,12.5-34.8-4C71.5,94,105.5,68.1,138.9,68.2c34.5,0.2,55.3,17.4,55.3,37.6
			c0,30.5-33.3,12.9-38.3,16.7c-9.2,7,13.8,33.8,7,47c-6.2,12.2-34.8,15.4-44.7,5.1C106.6,162.3,128.7,131.7,118.9,125z"/>
		<path class="st2" d="M121.4,130.1c3.8-28.4-9-28.2-13.8-22.9"/>
		<circle cx="109.7" cy="108.6" r="6.8"/>
		<path class="st2" d="M154,130.1c-3.8-28.4,9-28.2,13.8-22.9"/>
		<circle cx="165.7" cy="108.6" r="6.8"/>
	</g>
	<g>
		<path class="st1" d="M374.8,79.9c-36.4-0.5-62.3,28.4-62.1,56.2c0.2,31.9,27.1,47.1,56.8,46.9c34.4-0.2,64.7-11.5,64.9-44.3
			C434.6,105.7,412.4,80.5,374.8,79.9z"/>
		<path d="M374.4,89.9c-6.2-6.4-13.2,10.6-22.8,8.8c-1.2-0.2-2.1-1.2-2.4-2.4c-1.5-7.7,10.4-5.4-4.9-16.4c-4.2-3.6-3.9-9.4,0.3-10
			c6.3-0.9,4.3,6.9,14.3,3.6c13.3-4.5,4.8-9.9,10.6-10.8c4.1-0.6,1.4,8.4,8.3,10.4c5.1,1.5,8.4-1.8,12.1-4.6c1.6-1.2,4-0.3,4.4,1.7
			c0.5,2.5,0.8,6.4,3.7,8.4c3,2.1,7.3-3.6,10.1-0.4c6.1,7.1-10.3,7.1-13.2,13.5C386.7,109.3,381.4,97.1,374.4,89.9z"/>
	</g>
</g>
</svg>
