<?xml version="1.0" encoding="utf-8"?>
<!-- Generator: Adobe Illustrator 24.3.0, SVG Export Plug-In . SVG Version: 6.00 Build 0)  -->
<svg version="1.1" id="Layer_1" xmlns="http://www.w3.org/2000/svg" xmlns:xlink="http://www.w3.org/1999/xlink" x="0px" y="0px"
	 viewBox="0 0 576 576" style="enable-background:new 0 0 576 576;" xml:space="preserve">
<style type="text/css">
	.st0{opacity:0.4;fill:#FAAC1E;}
	.st1{fill:#010101;}
	.st2{fill:#FAAC1E;}
</style>
<g>
	<path class="st0" d="M367.5,488.8c3.5-21.2,3.4-31.1-0.9-62.9c-5.8-43-23.3-79-23.3-79c-30-75.6-36.1-84.3-52.2-131.7
		c-22.5-66.2-22.6-86.7-19.6-104.1c4.3-24.7,10.3-57.1,16.3-69.9c-0.3-0.2,7.3,4.2,7,4c-2.4-1.2-4.7-2.6-7-4c-2-3-4.7-6.3-6.7-3.9
		c-3.9,1.8-7,6.9-10.6,9.3c-2.6,1.6-5.1,3.2-7.6,4.9c-7.3,10.2-19.2,16.9-32.4,32c0.1,0.6-0.1-0.6,0,0c-0.5,7.7-2.8,18.1-3.4,30.5
		c-1.2,9.8-4.2,26.1-1,47.2c3.1,21.3,6.7,35.3,14,55.8c4.9,13.8,11.2,27,23.9,53.6c9.5,20,8.9,23,21.3,48.9
		c15.1,31.6,18.2,39.5,19.6,43.7c3.1,8.8,8.1,19.9,13.9,44.3c6.9,28.8,8.3,37.2,9.2,45.4c3.3,28.4-0.6,36.9-2.8,40.8
		c-6,10.4-16.9,11.5-21.7,12.4c3.6,3,6.6,6.6,9,10.6c15.2-0.1,30.3-0.3,45.4-1.7c0.5-0.6,1.1-1.2,1.7-1.8c-1.4,0.4-2,0.3-1.5-0.7
		C359.6,509.7,365,503.9,367.5,488.8z"/>
	<g>
		<path class="st1" d="M475.9,458.7c-0.1,0.1-0.1,0.2-0.2,0.3C475.8,458.8,475.9,458.7,475.9,458.7z"/>
		<path class="st2" d="M503.2,270.2c-11.1-28.6-22.6-48.9-43.9-72.9c-31.3-35.3-43.1-46.8-79.1-81.5C296.3,35.1,301-0.1,284.5,19.7
			C223.9,92.7,175.7,106.4,131,158.9c-50,58.7-62.2,83.1-68.2,156.7c-7.1,87,53.9,155.5,68.2,171.6c17.9,20.1,59.5,60.6,130,72.1
			c60.7,9.9,107.9-12.7,123.8-19.6c47-20.5,91.4-81.5,91.1-81c15.7-22.2,32.4-48.4,36.6-96.1C516.3,321.2,510.4,288.7,503.2,270.2z
			 M216,482.7c2.6,15.1,8.1,20.8,9.7,23.6c3,5.1-29.5-13.2-40.9-21.8c-14.3-10.8-25.6-20.7-29.8-24.5
			c-12.1-11.2-15.9-18.5-23.2-28.5c-9.3-12.5-13.9-23.2-20.4-38.4c-4.8-11.1-10.3-24.2-14.5-42.3c-5.4-23.8-5.3-42.7-5.1-53.7
			c0.3-18.1,0.6-38.1,9.4-62.3c6.1-16.8,14.2-29.6,18-35.6c3.6-5.7,9-12.6,19.6-26.2c16-20.6,27.6-32.2,33.3-36.8
			c10.6-8.7,5.2-5.7,29-24.7c3.7-3,14.8-11.8,28.6-23.9c15-13.1,22.5-19.7,29-26.6c14.7-15.9,25.1-23.7,25.1-23.7
			c5.5,11.6,20.6,41.1,25.4,67.1c3.2,17.4,3.2,37.8-18.8,104.2c-15.8,47.6-21.9,56.3-51.2,132.1c0,0-17.2,36-22.7,79.1
			C212.4,451.7,212.3,461.6,216,482.7z M487.2,344.6c-4.4,25.7-15.1,43.6-21.9,54.8c-28.6,47-58,68.4-89.8,82
			c-40.1,17.1-63.2,26.4-94,18.3c-3.9-1-16.4-1.2-23-12.5c-2.3-3.9-6.2-12.3-3.1-40.7c0.9-8.2,2.2-16.6,8.9-45.4
			c5.7-24.4,10.6-35.6,13.6-44.4c1.5-4.3,4.5-12.2,19.3-43.9c12.2-26,11.5-29.1,20.9-49.1c12.5-26.7,18.7-40,23.5-53.8
			c7.1-20.5,10.6-34.6,13.6-55.9c4.5-31.8-7.3-54.1-7.3-54.1c2.9-1.1,8.8,5.8,20.9,19.7c11.4,13.1,9.9,11.7,29.2,30.8
			c16.7,16.5,31.2,31.5,34.5,35.5c4,4.8,9.8,12.6,17.8,24c9.7,14,15.5,24.8,21.4,38.1c9.9,22.4,15.6,38.8,16.7,53.8
			C489.2,313.3,490.2,327.2,487.2,344.6z"/>
	</g>
</g>
</svg>
