<?xml version="1.0" encoding="utf-8"?>
<!-- Generator: Adobe Illustrator 24.3.0, SVG Export Plug-In . SVG Version: 6.00 Build 0)  -->
<svg version="1.1" id="Layer_1" xmlns="http://www.w3.org/2000/svg" xmlns:xlink="http://www.w3.org/1999/xlink" x="0px" y="0px"
	 viewBox="0 0 954 720" style="enable-background:new 0 0 954 720;" xml:space="preserve">
<style type="text/css">
	.st0{fill:#FFFFFF;}
	.st1{font-family:'ZCOOLQingKeHuangYou-Regular';}
	.st2{font-size:40px;}
	.st3{fill:#002D4F;}
	.st4{fill:#79A0B3;}
	.st5{fill:#9EACB5;}
	.st6{fill:#BC8D41;}
	.st7{fill:#D6AC74;}
	.st8{font-size:25.0227px;}
	.st9{font-size:25.02px;}
	.st10{fill:none;stroke:#FFFFFF;stroke-width:2;stroke-linecap:round;stroke-miterlimit:10;}
	.st11{fill:none;stroke:#000000;stroke-width:2;stroke-linecap:round;stroke-miterlimit:10;}
</style>
<g>
	<rect class="st0" width="954" height="720"/>
	<rect width="954" height="529.7"/>
	<text transform="matrix(1 0 0 1 52.3856 88.3952)" class="st0 st1 st2">Colors</text>
	<g>
		<g>
			<path class="st3" d="M598.1,186.5l-19-46.9c-1-2.5-3-4.5-5.5-5.6l-45.9-19.4c-2.5-1-5.3-1-7.7,0L474,134.1
				c-2.5,1-4.4,3.1-5.5,5.6l-19,46.9c-1,2.5-1,5.4,0,7.9l19,46.9c1,2.5,3,4.5,5.5,5.6l45.9,19.4c2.5,1,5.3,1,7.7,0l45.9-19.4
				c2.5-1,4.4-3.1,5.5-5.6l19-46.9C599.1,191.9,599.1,189,598.1,186.5z"/>
			<path class="st4" d="M748.2,186.5l-19-46.9c-1-2.5-3-4.5-5.5-5.6l-45.9-19.4c-2.5-1-5.3-1-7.7,0l-45.9,19.4
				c-2.5,1-4.4,3.1-5.5,5.6l-19,46.9c-1,2.5-1,5.4,0,7.9l19,46.9c1,2.5,3,4.5,5.5,5.6l45.9,19.4c2.5,1,5.3,1,7.7,0l45.9-19.4
				c2.5-1,4.4-3.1,5.5-5.6l19-46.9C749.2,191.9,749.2,189,748.2,186.5z"/>
			<path class="st5" d="M898.3,186.5l-19-46.9c-1-2.5-3-4.5-5.5-5.6l-45.9-19.4c-2.5-1-5.3-1-7.7,0l-45.9,19.4
				c-2.5,1-4.4,3.1-5.5,5.6l-19,46.9c-1,2.5-1,5.4,0,7.9l19,46.9c1,2.5,3,4.5,5.5,5.6l45.9,19.4c2.5,1,5.3,1,7.7,0l45.9-19.4
				c2.5-1,4.4-3.1,5.5-5.6l19-46.9C899.4,191.9,899.4,189,898.3,186.5z"/>
			<path class="st6" d="M598.1,339.7l-19-46.9c-1-2.5-3-4.5-5.5-5.6l-45.9-19.4c-2.5-1-5.3-1-7.7,0L474,287.3
				c-2.5,1-4.4,3.1-5.5,5.6l-19,46.9c-1,2.5-1,5.4,0,7.9l19,46.9c1,2.5,3,4.5,5.5,5.6l45.9,19.4c2.5,1,5.3,1,7.7,0l45.9-19.4
				c2.5-1,4.4-3.1,5.5-5.6l19-46.9C599.1,345.1,599.1,342.3,598.1,339.7z"/>
			<path class="st7" d="M748.2,339.7l-19-46.9c-1-2.5-3-4.5-5.5-5.6l-45.9-19.4c-2.5-1-5.3-1-7.7,0l-45.9,19.4
				c-2.5,1-4.4,3.1-5.5,5.6l-19,46.9c-1,2.5-1,5.4,0,7.9l19,46.9c1,2.5,3,4.5,5.5,5.6l45.9,19.4c2.5,1,5.3,1,7.7,0l45.9-19.4
				c2.5-1,4.4-3.1,5.5-5.6l19-46.9C749.2,345.1,749.2,342.3,748.2,339.7z"/>
			<path class="st0" d="M898.3,339.7l-19-46.9c-1-2.5-3-4.5-5.5-5.6l-45.9-19.4c-2.5-1-5.3-1-7.7,0l-45.9,19.4
				c-2.5,1-4.4,3.1-5.5,5.6l-19,46.9c-1,2.5-1,5.4,0,7.9l19,46.9c1,2.5,3,4.5,5.5,5.6l45.9,19.4c2.5,1,5.3,1,7.7,0l45.9-19.4
				c2.5-1,4.4-3.1,5.5-5.6l19-46.9C899.4,345.1,899.4,342.3,898.3,339.7z"/>
		</g>
		<g>
			<text transform="matrix(1 0 0 1 479.7158 75.3955)" class="st0 st1 st8"># 002d4f</text>
		</g>
		<g>
			<text transform="matrix(1 0 0 1 629.7138 75.3945)" class="st0 st1 st8"># 79a0b3</text>
		</g>
		<g>
			<text transform="matrix(1 0 0 1 780.4999 75.3955)" class="st0 st1 st8"># 9eacb5</text>
		</g>
		<g>
			<text transform="matrix(1 0 0 1 482.5058 475.7988)" class="st0 st1 st8"># bc8d41</text>
		</g>
		<g>
			<text transform="matrix(1 0 0 1 630.9902 475.7988)" class="st0 st1 st8"># d6ac74</text>
		</g>
		<g>
			<text transform="matrix(1 0 0 1 791.6474 475.7988)" class="st0 st1 st8"># ffffff</text>
		</g>
	</g>
	<text transform="matrix(1 0 0 1 54.4331 612.4814)" class="st1 st2">Typography</text>
	<text transform="matrix(1 0 0 1 447.0812 700.6763)" class="st1 st9">ZCOOL QingKe HuangYou Regular </text>
	<line class="st10" x1="54.4" y1="142.8" x2="378.4" y2="142.8"/>
	<line class="st11" x1="54.4" y1="665.9" x2="378.4" y2="665.9"/>
</g>
</svg>
