<?xml version="1.0" encoding="utf-8"?>
<!-- Generator: Adobe Illustrator 24.3.0, SVG Export Plug-In . SVG Version: 6.00 Build 0)  -->
<svg version="1.1" id="Layer_1" xmlns="http://www.w3.org/2000/svg" xmlns:xlink="http://www.w3.org/1999/xlink" x="0px" y="0px"
	 viewBox="0 0 648.3 661.6" style="enable-background:new 0 0 648.3 661.6;" xml:space="preserve">
<style type="text/css">
	.st0{fill:#79A0B3;}
	.st1{fill:#002D4F;}
	.st2{fill:none;stroke:#002D4F;stroke-width:16.8863;stroke-miterlimit:10;}
</style>
<g>
	<path class="st0" d="M636.6,314.2l-80-197.2c-4.3-10.6-12.6-19.1-23-23.5L340.4,11.7c-10.4-4.4-22.1-4.4-32.5,0L114.7,93.4
		c-10.4,4.4-18.7,12.9-23,23.5l-80,197.2c-4.3,10.6-4.3,22.6,0,33.2l80,197.2c4.3,10.6,12.6,19.1,23,23.5l193.2,81.7
		c10.4,4.4,22.1,4.4,32.5,0l193.2-81.7c10.4-4.4,18.7-12.9,23-23.5l80-197.2C641,336.8,641,324.8,636.6,314.2z"/>
	<g>
		<g>
			<path class="st1" d="M57.4,205.2L52.6,217l221.7,226.4c1.7-3.8,3.4-7.6,5.2-11.5L57.4,205.2z"/>
			<path class="st1" d="M435.6,608.1l11.6-4.9L283.7,436.3c-1.7,3.9-3.5,7.7-5.2,11.4L435.6,608.1z"/>
			<path class="st1" d="M212.7,545.2c-19.7,16.3-39.7,13.2-59,10.2c-17.3-2.7-33.7-5.2-50.2,5.7c3.3,2.9,7.1,5.3,11.2,7l193.2,81.7
				c10.4,4.4,22.1,4.4,32.5,0l93.4-39.5L277.3,450.5C255.8,496.8,234.5,532.4,212.7,545.2z"/>
			<path class="st1" d="M292.2,402.3l-8.2-41l5.5-1.1l6.5,32.9c8.5-20.5,16.9-41.8,25.2-62.8l0.3-0.7c13.6-34.3,26.9-68,40.2-98.2
				l-0.5,0.5l-11.7-11.9l11.8-12.1l7.4,7.6c22.2-48.5,44.2-85.9,66.8-99.2c19.7-16.3,39.6-13.1,59-10.1c17.3,2.7,33.7,5.3,50.2-5.6
				c-3.3-2.9-7.1-5.3-11.2-7L340.4,11.7c-10.4-4.4-22.1-4.4-32.5,0l-99.3,42l1.1-0.5l-11.7,11.9l-4.8-4.9l-78.6,33.2
				c-10.4,4.4-18.7,12.9-23,23.5l-34.2,84.3l223.2,227.9C284.5,420.4,288.4,411.4,292.2,402.3z M173.5,198.9l-15.7-21.4l15.7-21.4
				l15.7,21.4L173.5,198.9z M349.8,195.9L338,208l-11.7-11.9l11.8-12.1L349.8,195.9z M314.8,160.2l11.7,11.9l-11.8,12.1L303,172.3
				L314.8,160.2z M303.2,148.3l-11.8,12.1l-11.7-11.9l11.8-12.1L303.2,148.3z M209.8,77.1L221.6,65l11.7,11.9L221.4,89L209.8,77.1z
				 M233.1,100.9l11.8-12.1l11.7,11.9l-11.8,12.1L233.1,100.9z M256.4,124.7l11.8-12.1l11.7,11.9L268,136.6L256.4,124.7z"/>
			<path class="st1" d="M154.5,549.8c19,3,36.9,5.7,55-9.3c21-12.4,42.3-48.6,63.5-94.4L50.4,218.8l-38.7,95.4
				c-4.3,10.6-4.3,22.6,0,33.2l80,197.2c1.9,4.6,4.5,8.8,7.7,12.4C118,544.2,136.6,547,154.5,549.8z"/>
			<path class="st1" d="M636.6,314.2l-80-197.2c-1.9-4.6-4.5-8.8-7.7-12.4l0,0c-18.6,12.9-37.1,10-55.1,7.2c-19-2.9-36.9-5.7-55,9.2
				c-37.2,21.8-75.2,117.8-112,210.7l-0.3,0.7c-8.3,20.9-16.5,41.6-24.6,61.4l24.6-19.9l3.5,4.5l-32.6,26.3
				c-4.1,9.9-8.3,19.6-12.4,28.9L451,603.1l82.6-34.9c10.4-4.4,18.7-12.9,23-23.5l34.3-84.4l-1.7,4.2l-6.4-6.5l11.8-12.1l1.5,1.5
				l40.6-100C641,336.8,641,324.8,636.6,314.2z M372.9,243.7l11.8-12.1l11.7,11.9l-11.8,12.1L372.9,243.7z M396.3,267.5l11.8-12.1
				l11.7,11.9l-11.8,12.1L396.3,267.5z M419.6,291.3l11.8-12.1l11.7,11.9l-11.8,12.1L419.6,291.3z M442.9,315.1l11.8-12.1l11.7,11.9
				L454.5,327L442.9,315.1z M466.2,338.9l11.8-12.1l11.7,11.9l-11.8,12.1L466.2,338.9z M489.5,362.7l11.8-12.1l11.7,11.9l-11.8,12.1
				L489.5,362.7z M524.6,374.4l11.7,11.9l-11.8,12.1l-11.7-11.9L524.6,374.4z M553.3,438.1h-11.1v-22.3h-21.9v-11.4h21.9v-22.3h11.1
				v22.3h21.9v11.4h-21.9V438.1z M571.1,446l-11.7-11.9l11.8-12.1l11.7,11.9L571.1,446z"/>
			<polygon class="st1" points="193.3,60.2 193.3,60.2 208.6,53.7 			"/>
			<polygon class="st1" points="596.1,447.4 596.1,447.4 590.9,460.2 			"/>
		</g>
		<path class="st1" d="M283.7,436.3l-4.3-4.4c-1.9,4.2-3.3,7.4-5.2,11.5l4.3,4.3C280.4,443.7,281.8,440.5,283.7,436.3z"/>
	</g>
	<path class="st2" d="M636.6,314.2l-80-197.2c-4.3-10.6-12.6-19.1-23-23.5L340.4,11.7c-10.4-4.4-22.1-4.4-32.5,0L114.7,93.4
		c-10.4,4.4-18.7,12.9-23,23.5l-80,197.2c-4.3,10.6-4.3,22.6,0,33.2l80,197.2c4.3,10.6,12.6,19.1,23,23.5l193.2,81.7
		c10.4,4.4,22.1,4.4,32.5,0l193.2-81.7c10.4-4.4,18.7-12.9,23-23.5l80-197.2C641,336.8,641,324.8,636.6,314.2z"/>
</g>
</svg>
