<?xml version="1.0" encoding="utf-8"?>
<!-- Generator: Adobe Illustrator 24.3.0, SVG Export Plug-In . SVG Version: 6.00 Build 0)  -->
<svg version="1.1" id="Layer_1" xmlns="http://www.w3.org/2000/svg" xmlns:xlink="http://www.w3.org/1999/xlink" x="0px" y="0px"
	 viewBox="0 0 954 720" style="enable-background:new 0 0 954 720;" xml:space="preserve">
<style type="text/css">
	.st0{fill:#FFFFFF;}
	.st1{fill:none;stroke:#FFFFFF;stroke-width:8.0061;stroke-miterlimit:10;}
	.st2{fill:none;stroke:#000000;stroke-width:8.1269;stroke-miterlimit:10;}
</style>
<g>
	<rect class="st0" width="477" height="720"/>
	<rect x="477" width="477" height="720"/>
	<g>
		<g>
			<g>
				<path class="st0" d="M587.9,301l-2.3,5.6l106.1,106.4c0.8-1.8,1.6-3.6,2.5-5.4L587.9,301z"/>
				<path class="st0" d="M768.8,490.3l5.5-2.3l-78.2-78.4c-0.8,1.8-1.7,3.6-2.5,5.4L768.8,490.3z"/>
				<path class="st0" d="M662.2,460.8c-9.4,7.7-19,6.2-28.2,4.8c-8.3-1.3-16.1-2.5-24,2.7c1.6,1.4,3.4,2.5,5.4,3.3l92.4,38.4
					c5,2.1,10.6,2.1,15.6,0l44.7-18.6l-74.9-75.1C682.8,438,672.6,454.7,662.2,460.8z"/>
				<path class="st0" d="M700.2,393.6l-3.9-19.3l2.6-0.5l3.1,15.4c4-9.6,8.1-19.6,12.1-29.5l0.1-0.3c6.5-16.1,12.9-31.9,19.2-46.1
					l-0.2,0.2l-5.6-5.6l5.7-5.7l3.6,3.6c10.6-22.8,21.1-40.4,31.9-46.6c9.4-7.6,19-6.2,28.2-4.8c8.3,1.3,16.1,2.5,24-2.7
					c-1.6-1.4-3.4-2.5-5.4-3.3l-92.4-38.4c-5-2.1-10.6-2.1-15.6,0l-47.5,19.7l0.5-0.2l-5.6,5.6l-2.3-2.3l-37.6,15.6
					c-5,2.1-8.9,6-11,11l-16.4,39.6l106.8,107.1C696.5,402.1,698.4,397.9,700.2,393.6z M643.4,298l-7.5-10.1l7.5-10.1l7.5,10.1
					L643.4,298z M727.8,296.6l-5.7,5.7l-5.6-5.6l5.7-5.7L727.8,296.6z M711,279.8l5.6,5.6l-5.7,5.7l-5.6-5.6L711,279.8z
					 M705.5,274.3l-5.7,5.7l-5.6-5.6l5.7-5.7L705.5,274.3z M660.8,240.8l5.7-5.7l5.6,5.6l-5.7,5.7L660.8,240.8z M671.9,252l5.7-5.7
					l5.6,5.6l-5.7,5.7L671.9,252z M683.1,263.1l5.7-5.7l5.6,5.6l-5.7,5.7L683.1,263.1z"/>
				<path class="st0" d="M634.3,462.9c9.1,1.4,17.7,2.7,26.3-4.4c10-5.8,20.2-22.8,30.4-44.4L584.5,307.4L566,352.2
					c-2.1,5-2.1,10.6,0,15.6l38.3,92.7c0.9,2.2,2.2,4.1,3.7,5.8C616.9,460.3,625.8,461.6,634.3,462.9z"/>
				<path class="st0" d="M865,352.2l-38.3-92.7c-0.9-2.2-2.2-4.1-3.7-5.8l0,0c-8.9,6-17.8,4.7-26.4,3.4c-9.1-1.4-17.7-2.7-26.3,4.3
					c-17.8,10.2-36,55.4-53.6,99l-0.1,0.3c-4,9.8-7.9,19.6-11.8,28.9l11.8-9.3l1.7,2.1l-15.6,12.4c-2,4.7-4,9.2-5.9,13.6l79.4,79.7
					l39.5-16.4c5-2.1,8.9-6,11-11l16.4-39.7l-0.8,2l-3.1-3.1l5.7-5.7l0.7,0.7l19.4-47C867,362.8,867,357.2,865,352.2z M738.8,319.1
					l5.7-5.7l5.6,5.6l-5.7,5.7L738.8,319.1z M750,330.3l5.7-5.7l5.6,5.6l-5.7,5.7L750,330.3z M761.1,341.4l5.7-5.7l5.6,5.6l-5.7,5.7
					L761.1,341.4z M772.3,352.6l5.7-5.7l5.6,5.6l-5.7,5.7L772.3,352.6z M783.4,363.8l5.7-5.7l5.6,5.6l-5.7,5.7L783.4,363.8z
					 M794.6,375l5.7-5.7l5.6,5.6l-5.7,5.7L794.6,375z M811.4,380.5l5.6,5.6l-5.7,5.7l-5.6-5.6L811.4,380.5z M825.1,410.4h-5.3v-10.5
					h-10.5v-5.3h10.5v-10.5h5.3v10.5h10.5v5.3h-10.5V410.4z M833.6,414.1l-5.6-5.6l5.7-5.7l5.6,5.6L833.6,414.1z"/>
				<polygon class="st0" points="652.9,232.9 652.9,232.9 660.2,229.8 				"/>
				<polygon class="st0" points="845.6,414.8 845.6,414.8 843.1,420.8 				"/>
			</g>
			<path class="st0" d="M696.2,409.6l-2-2c-0.9,2-1.6,3.5-2.5,5.4l2,2C694.6,413,695.3,411.6,696.2,409.6z"/>
		</g>
		<path class="st1" d="M865,352.2l-38.3-92.7c-2.1-5-6-9-11-11l-92.4-38.4c-5-2.1-10.6-2.1-15.6,0l-92.4,38.4c-5,2.1-8.9,6-11,11
			L566,352.2c-2.1,5-2.1,10.6,0,15.6l38.3,92.7c2.1,5,6,9,11,11l92.4,38.4c5,2.1,10.6,2.1,15.6,0l92.4-38.4c5-2.1,8.9-6,11-11
			l38.3-92.7C867,362.8,867,357.2,865,352.2z"/>
	</g>
	<g>
		<g>
			<g>
				<path d="M109.4,300.9l-2.3,5.6L215,414.2c0.8-1.8,1.7-3.6,2.5-5.4L109.4,300.9z"/>
				<path d="M293.5,492.6l5.6-2.3l-79.6-79.4c-0.8,1.8-1.7,3.7-2.5,5.4L293.5,492.6z"/>
				<path d="M185,462.7c-9.6,7.8-19.3,6.3-28.7,4.9c-8.4-1.3-16.4-2.5-24.4,2.7c1.6,1.4,3.5,2.5,5.5,3.3l94.1,38.9
					c5.1,2.1,10.8,2.1,15.8,0l45.5-18.8l-76.2-76C206,439.6,195.7,456.6,185,462.7z"/>
				<path d="M223.7,394.7l-4-19.5l2.7-0.5l3.2,15.6c4.1-9.8,8.2-19.9,12.3-29.9l0.1-0.3c6.6-16.3,13.1-32.3,19.6-46.7l-0.2,0.2
					l-5.7-5.7l5.8-5.7l3.6,3.6c10.8-23.1,21.5-40.9,32.5-47.2c9.6-7.7,19.3-6.3,28.7-4.8c8.4,1.3,16.4,2.5,24.4-2.7
					c-1.6-1.4-3.5-2.5-5.5-3.3l-94.1-38.9c-5.1-2.1-10.8-2.1-15.8,0l-48.3,20l0.6-0.2l-5.7,5.7l-2.4-2.3l-38.2,15.8
					c-5.1,2.1-9.1,6.1-11.2,11.2l-16.7,40.1l108.7,108.4C220,403.3,221.9,399,223.7,394.7z M165.9,297.9l-7.6-10.2l7.6-10.2
					l7.6,10.2L165.9,297.9z M251.8,296.5l-5.8,5.7l-5.7-5.7l5.8-5.7L251.8,296.5z M234.8,279.5l5.7,5.7l-5.8,5.7l-5.7-5.7
					L234.8,279.5z M229.1,273.9l-5.8,5.7l-5.7-5.7l5.8-5.7L229.1,273.9z M183.6,240l5.8-5.7l5.7,5.7l-5.8,5.7L183.6,240z
					 M194.9,251.3l5.8-5.7l5.7,5.7l-5.8,5.7L194.9,251.3z M206.3,262.6l5.8-5.7l5.7,5.7l-5.8,5.7L206.3,262.6z"/>
				<path d="M156.7,464.9c9.2,1.4,18,2.7,26.8-4.4c10.2-5.9,20.6-23.1,30.9-44.9L106,307.4l-18.8,45.4c-2.1,5.1-2.1,10.7,0,15.8
					l39,93.8c0.9,2.2,2.2,4.2,3.8,5.9C138.9,462.2,148,463.5,156.7,464.9z"/>
				<path d="M391.4,352.8l-39-93.8c-0.9-2.2-2.2-4.2-3.8-5.9l0,0c-9.1,6.1-18.1,4.8-26.8,3.4c-9.2-1.4-18-2.7-26.8,4.4
					c-18.1,10.4-36.6,56.1-54.5,100.2l-0.1,0.3c-4,10-8,19.8-12,29.2l12-9.5l1.7,2.1l-15.9,12.5c-2,4.7-4,9.3-6,13.7l80.8,80.7
					l40.2-16.6c5.1-2.1,9.1-6.1,11.2-11.2l16.7-40.2l-0.8,2l-3.1-3.1l5.8-5.7l0.7,0.7l19.7-47.6
					C393.5,363.5,393.5,357.8,391.4,352.8z M263.1,319.2l5.8-5.7l5.7,5.7l-5.8,5.7L263.1,319.2z M274.4,330.6l5.8-5.7l5.7,5.7
					l-5.8,5.7L274.4,330.6z M285.8,341.9l5.8-5.7l5.7,5.7l-5.8,5.7L285.8,341.9z M297.1,353.2l5.8-5.7l5.7,5.7l-5.8,5.7L297.1,353.2
					z M308.5,364.5l5.8-5.7l5.7,5.7l-5.8,5.7L308.5,364.5z M319.8,375.9l5.8-5.7l5.7,5.7l-5.8,5.7L319.8,375.9z M336.9,381.4
					l5.7,5.7l-5.8,5.7l-5.7-5.7L336.9,381.4z M350.9,411.7h-5.4v-10.6h-10.6v-5.4h10.6v-10.6h5.4v10.6h10.6v5.4h-10.6V411.7z
					 M359.5,415.5l-5.7-5.7l5.8-5.7l5.7,5.7L359.5,415.5z"/>
				<polygon points="175.6,232 175.6,232 183.1,228.9 				"/>
				<polygon points="371.7,416.1 371.7,416.1 369.2,422.2 				"/>
			</g>
			<path d="M219.6,410.9l-2.1-2.1c-0.9,2-1.6,3.5-2.5,5.4l2.1,2.1C218,414.4,218.7,412.9,219.6,410.9z"/>
		</g>
		<path class="st2" d="M391.4,352.8l-39-93.8c-2.1-5.1-6.1-9.1-11.2-11.2l-94.1-38.9c-5.1-2.1-10.8-2.1-15.8,0l-94.1,38.9
			c-5.1,2.1-9.1,6.1-11.2,11.2l-39,93.8c-2.1,5.1-2.1,10.7,0,15.8l39,93.8c2.1,5.1,6.1,9.1,11.2,11.2l94.1,38.9
			c5.1,2.1,10.8,2.1,15.8,0l94.1-38.9c5.1-2.1,9.1-6.1,11.2-11.2l39-93.8C393.5,363.5,393.5,357.8,391.4,352.8z"/>
	</g>
</g>
</svg>
